<?xml version="1.0" encoding="UTF-8"?>
<svg width="84px" height="84px" viewBox="0 0 84 84" version="1.1" xmlns="http://www.w3.org/2000/svg" xmlns:xlink="http://www.w3.org/1999/xlink">
    <!-- Generator: Sketch 42 (36781) - http://www.bohemiancoding.com/sketch -->
    <title>dominos_pizza 3</title>
    <desc>Created with Sketch.</desc>
    <defs></defs>
    <g id="Welcome" stroke="none" stroke-width="1" fill="none" fill-rule="evenodd">
        <g id="Desktop" transform="translate(-467.000000, -717.000000)">
            <g id="Fill-24-+-Fill-26-+-dominos_pizza-3-+-Group-2" transform="translate(259.000000, 708.000000)">
                <g id="dominos_pizza-3" transform="translate(210.000000, 11.000000)">
                    <path d="M26.4173248,27.285623 L52.6850955,53.6385942 L27.026242,79.4333546 C26.1923567,80.2699042 24.8119745,80.2448562 23.9459873,79.3763578 L0.800254777,56.1574441 C-0.0657324841,55.2889457 -0.104458599,53.8911182 0.731464968,53.0535463 L26.4173248,27.285623 Z M31.0242038,59.5082428 C33.513121,62.0061342 37.5498089,62.0061342 40.037707,59.5082428 C42.5258599,57.0111182 42.5258599,52.9625559 40.037707,50.4656869 C37.5498089,47.9695847 33.513121,47.9695847 31.0242038,50.4656869 C28.5350318,52.9615335 28.5350318,57.0111182 31.0242038,59.5082428 Z M11.2211465,59.2385942 C13.7110828,61.7336741 17.7467516,61.7336741 20.2359236,59.2385942 C22.7248408,56.7404473 22.7248408,52.6921406 20.2359236,50.195016 C17.7467516,47.6989137 13.7110828,47.6989137 11.2211465,50.195016 C8.73197452,52.6921406 8.73197452,56.7404473 11.2211465,59.2385942 Z" id="Fill-1" fill="#FFFFFF"></path>
                    <path d="M26.4173248,27.285623 L0.731464968,53.0535463 C-0.104458599,53.8911182 -0.0657324841,55.2889457 0.800254777,56.1574441 L23.9459873,79.3763578 C24.8119745,80.2448562 26.1923567,80.2699042 27.026242,79.4333546 L52.6850955,53.6385942 L26.4173248,27.285623 Z" id="Stroke-2" stroke="#FFFFFF" stroke-width="2.318"></path>
                    <path d="M55.3075159,51.0617252 L29.0257325,24.6957188 L52.9796178,0.665303514 C53.8147771,-0.173290735 55.1941401,-0.148498403 56.0608917,0.720255591 L79.2048408,23.9391693 C80.0726115,24.8086901 80.0975796,26.1924601 79.2624204,27.0310543 L55.3075159,51.0617252 Z M50.3304459,30.0741214 C52.8183439,32.571246 56.8529936,32.571246 59.3431847,30.0741214 C61.8321019,27.5772524 61.8321019,23.5297125 59.3431847,21.0315655 C56.8529936,18.5357188 52.8183439,18.5357188 50.3304459,21.0315655 C47.8412739,23.5297125 47.8412739,27.5772524 50.3304459,30.0741214 Z" id="Fill-3" fill="#FFFFFF"></path>
                    <path d="M55.3075159,51.0617252 L79.2624204,27.0310543 C80.0975796,26.1924601 80.0726115,24.8086901 79.2048408,23.9391693 L56.0608917,0.720255591 C55.1941401,-0.148498403 53.8147771,-0.173290735 52.9796178,0.665303514 L29.0257325,24.6957188 L55.3075159,51.0617252 Z" id="Stroke-4" stroke="#FFFFFF" stroke-width="2.318"></path>
                </g>
            </g>
        </g>
    </g>
</svg>