<?xml version="1.0" encoding="UTF-8"?>
<svg width="132px" height="59px" viewBox="0 0 132 59" version="1.1" xmlns="http://www.w3.org/2000/svg" xmlns:xlink="http://www.w3.org/1999/xlink">
    <!-- Generator: Sketch 42 (36781) - http://www.bohemiancoding.com/sketch -->
    <title>Fill 24 + Fill 26</title>
    <desc>Created with Sketch.</desc>
    <defs></defs>
    <g id="Welcome" stroke="none" stroke-width="1" fill="none" fill-rule="evenodd">
        <g id="Desktop" transform="translate(-259.000000, -730.000000)" fill="#FFFDFC">
            <g id="Fill-24-+-Fill-26-+-dominos_pizza-3-+-Group-2" transform="translate(259.000000, 708.000000)">
                <g id="Fill-24-+-Fill-26" transform="translate(0.000000, 22.000000)">
                    <path d="M13.7888604,5.65492672 C13.7888604,5.65492672 13.8798592,5.3888767 13.9041719,5.32427447 C13.9298739,5.2603669 14.1834202,4.56710861 14.8113816,4.50181173 C14.8113816,4.50181173 15.1767663,4.48027766 15.7380415,4.48027766 C15.7380415,4.48027766 15.4636557,5.36178544 14.3820894,5.55350818 C14.3820894,5.55350818 13.9597437,5.6486749 13.7888604,5.65492672 L13.7888604,5.65492672 Z M122.365751,34.2049425 C122.143464,34.9739173 121.045226,36.0040797 119.708724,36.5952248 C118.304841,37.2238809 115.377596,37.3878177 113.68613,37.1106533 C113.681267,37.1106533 110.408088,36.7786118 107.539193,33.7819021 C106.633373,32.8357921 105.521242,31.7625616 104.493163,30.703224 C104.040948,30.2294743 102.928122,29.1173435 101.078971,28.870049 C99.1520181,28.6095562 94.4478647,28.4824357 92.6779027,27.8947638 C91.4949178,27.5015933 90.0688063,26.6992753 88.1710291,23.8894258 C87.2575676,22.5438935 86.6094614,22.1750356 85.3667368,21.3866106 C85.3667368,21.3866106 86.3197933,22.1437764 86.8588398,23.0989169 C87.6382344,24.488212 88.031405,25.4989243 88.45514,26.2380293 C88.878875,26.9806076 89.3595711,27.6384388 90.0833939,28.2205535 C90.9822679,28.9436817 91.5435432,29.0791379 92.5188284,29.2402962 C93.4510454,29.3965919 96.6005776,29.3681113 99.3027567,29.3271271 C101.960478,29.2854483 103.146936,30.1440327 104.019414,30.8796645 C104.828678,31.5590298 106.213805,33.5075163 107.066138,34.3612382 C108.081713,35.3719504 108.824291,36.4041967 110.832517,37.4176875 C111.529943,37.7705685 112.671249,38.638878 112.612204,39.4759283 C111.710552,40.3796648 110.589391,40.6165397 107.901104,39.8975794 C108.090743,40.0851343 109.498794,41.5626497 111.906442,40.8638342 C111.179841,41.4702615 110.468522,41.7293651 109.724554,41.6883809 C107.205068,41.5487567 104.736985,38.4443767 103.353941,37.2995974 C102.302245,36.4285094 102.181376,36.21039 100.394743,34.9739173 C97.6821439,33.0948956 91.5956417,33.6256064 91.5956417,33.6256064 L87.1290578,33.8576187 C78.4292914,34.5154499 74.777529,26.8090296 73.8140528,25.2016151 C73.4778434,24.6438131 73.177061,24.1936815 72.8887823,23.8269075 C72.4435132,23.2357624 70.0671238,20.1529165 67.6643378,19.1394256 C67.6643378,19.1394256 70.0254449,21.1719645 69.8865154,22.5181915 C69.8865154,22.5181915 68.907757,22.061808 66.2451728,22.4431696 C54.7848769,24.0755914 50.88582,21.2073915 50.88582,21.2073915 C51.4179201,18.9115812 49.8139788,16.5553366 49.8139788,16.5553366 C50.6982652,16.8359742 56.3325517,18.7379193 61.6834221,17.6514905 C61.6834221,17.6514905 52.9767092,17.6987265 46.870757,12.8278577 C46.870757,12.8278577 50.6697846,17.5889722 49.7681321,20.7065506 C49.7681321,20.7065506 49.1443385,24.0283553 42.5215684,22.6890748 C41.8144172,22.5494506 40.982924,22.3118812 31.0689137,19.5617714 C28.7383711,18.8643452 27.9339692,19.9778653 27.5137074,20.6454216 C27.4956465,21.6255693 26.3411423,22.7689593 25.7590276,23.1287867 C22.6914638,22.5751526 23.9133489,19.7284868 23.9133489,19.7284868 C21.9822287,22.4897109 24.0050424,23.7102067 24.6455075,23.7970377 C24.2627567,23.9832032 23.899456,24.1158809 23.5924218,24.2304978 C23.5924218,24.2304978 21.0854386,22.7377001 22.4858482,20.2904567 C24.4405865,16.8804317 26.4293625,15.7856671 30.0790409,15.4536256 C31.6746464,15.3001084 33.0055912,15.1875755 34.0176927,15.3258104 C36.6649947,15.691195 38.3231184,17.1860766 42.2881669,17.571606 C33.87529,15.0937981 33.8558398,10.2208453 33.82597,10.1284572 C33.8245807,10.1270679 33.823886,10.1187321 33.823886,10.1187321 C33.3577775,11.7268413 33.6134078,13.0807094 34.0246392,14.2240993 C33.908633,14.1838098 32.0685116,12.9744283 31.3669175,12.5486094 C28.3465898,10.7036254 25.96117,10.3820035 25.96117,10.3820035 C24.9601829,10.2541884 24.4933797,9.03716581 24.4933797,9.03716581 C24.4586473,8.97534218 24.421831,8.91838108 24.3884879,8.86003068 C22.9943302,6.48016806 21.616844,6.43223737 21.616844,6.43223737 C22.3913761,7.48671241 22.4080476,8.98992978 22.4080476,8.98992978 C22.8206683,11.9477392 19.4745509,12.8591168 19.4745509,12.8591168 C17.4232566,15.4612667 17.5302323,15.5161438 17.0745435,15.5835247 C16.6160761,15.6474322 15.6157835,15.1375609 15.6157835,15.1375609 C15.4518467,14.8944342 15.6831644,14.6513076 15.6831644,14.6513076 C16.0679991,14.3463573 16.3819798,14.043491 16.3819798,14.043491 C18.5506696,11.8254812 18.8104678,10.7432203 18.5423338,9.30599443 C17.9942569,6.42181766 15.9339321,6.75802709 15.9339321,6.75802709 C14.9621202,6.8135989 14.5265761,7.68051908 14.5265761,7.68051908 C14.1834202,8.21261913 13.4519563,9.83809448 13.4519563,9.83809448 C13.0052979,10.8078225 12.5489145,11.0266365 12.3120396,11.0697046 C12.2078425,11.0891548 12.0182037,11.0849869 11.9549908,11.0835976 C11.2582592,11.0578956 10.7282431,10.414652 10.7282431,10.414652 C10.6962894,10.3820035 10.6650302,10.3465765 10.6414122,10.3194853 C10.0037257,9.63456274 10.466361,8.74194059 10.466361,8.74194059 C11.3242508,6.7392716 12.9927943,6.44890891 13.2192494,6.41903907 C13.4519563,6.38916922 14.2202365,6.27802561 14.2202365,6.27802561 C16.3409956,5.92097675 17.3412881,3.71338673 17.3412881,3.71338673 C15.9117034,3.69740983 15.2135826,3.79118725 15.2135826,3.79118725 C13.8076159,4.03778715 13.330393,5.69313234 13.330393,5.69035375 C12.1390724,5.96335025 12.1703315,4.94013436 12.3787258,4.62823759 C12.565586,4.3392642 13.2650961,3.11112727 17.8365719,2.05456829 C17.8365719,2.05456829 20.0907033,1.3758976 24.9094736,1.5933223 C24.9094736,1.5933223 24.9094736,1.5933223 24.7101097,1.96218016 C24.2842908,2.76797136 22.5942132,4.43026303 19.8017299,3.81411062 C19.8017299,3.81411062 19.8267372,5.05544586 22.8560953,5.49932567 C22.8560953,5.49932567 25.5950908,5.98905221 30.2408938,9.72278298 C30.2408938,9.72278298 28.0194108,5.30899223 24.2474744,4.1669916 C24.2474744,4.1669916 23.7778927,4.0662677 24.007821,3.77034783 C24.007821,3.77034783 26.3348904,1.6079099 29.3329894,1.52246824 C29.3329894,1.52246824 39.4880424,0.544404443 45.1251076,8.30222867 C45.1251076,8.30222867 43.4266943,5.00959912 42.1388176,3.57098397 C42.1388176,3.57098397 48.0349863,5.23605423 57.100832,8.38905962 C57.100832,8.38905962 63.2887526,10.5827567 67.2475492,12.1443245 C72.5907785,14.2498013 85.953714,19.4492385 94.4798185,24.0957362 C96.0004021,24.9237561 111.4188,32.9636072 111.4188,32.9636072 C115.687409,34.8808346 118.64244,33.7152159 118.64244,33.7152159 C119.603138,33.3498313 121.346703,32.0112454 122.108732,32.7684113 C122.502597,33.1601925 122.554695,33.6881247 122.365751,34.2049425 L122.365751,34.2049425 Z M123.292411,32.3300886 C122.667923,30.9394042 120.945891,31.3909251 120.945891,31.3909251 C120.132459,31.5618084 119.203021,32.4940255 117.822756,32.9024782 C114.859389,33.7805128 112.492725,32.7600755 112.492725,32.7600755 C107.93028,30.7872763 93.2627959,22.3903763 85.8029755,18.7219424 C85.8029755,18.7219424 77.1358576,14.7082687 64.5599577,9.72972946 C64.5599577,9.72972946 39.8527324,-0.81502088 23.3576309,0.0505100106 C23.3576309,0.0505100106 14.566171,0.282522304 11.7986951,4.16143442 C11.7986951,4.16143442 11.3284187,4.69561841 11.595858,5.2735652 C11.595858,5.2735652 11.6479565,5.43958597 11.5375076,5.54934029 C11.5375076,5.54934029 10.0579082,6.87611718 9.30421559,8.05493413 C9.03886021,8.48561563 8.78600849,9.17192745 9.2882387,9.70889003 C9.2882387,9.70889003 9.5334493,9.89922347 9.63556249,10.0645496 C9.85020859,10.4160413 10.0502671,10.9398055 10.3163171,11.250313 C10.6997626,11.7087804 11.4777679,12.5013733 12.5732271,12.3124292 C13.0615644,12.2269875 13.064343,12.0901419 13.064343,12.0901419 C13.6124199,12.634051 14.5022635,12.6180741 14.5022635,12.6180741 C14.3897306,12.269361 14.008369,11.5851332 13.9541865,11.1718178 C13.8958361,10.7168237 14.0278192,10.2812796 14.0278192,10.2812796 C14.1834202,9.76585113 14.4897598,9.11635564 14.8287478,8.78778733 C15.1246677,8.49325676 15.8839175,8.15704732 16.4952074,8.57869841 C16.9835446,8.92463291 17.566354,10.0520459 17.08149,11.6601551 C17.0599559,11.7824131 16.5250772,12.9230244 15.9526876,13.0966863 C15.9526876,13.0966863 15.8985051,13.1147471 15.7901401,13.1147471 C15.4032214,13.1147471 14.6856504,12.7104622 14.6856504,12.7104622 C14.6856504,12.7104622 14.6675896,12.8118808 14.7697028,13.2286693 C14.8336104,13.4669335 14.9176627,13.7274263 14.9857382,13.9295688 C14.9857382,13.9295688 14.8468087,14.1796419 14.7558098,14.3248232 C14.6356358,14.4804243 14.5015688,15.0479514 14.7981833,15.2632921 C14.7981833,15.2632921 16.0679991,16.1274337 17.3009986,16.2024557 C18.1505526,16.2538596 18.4721744,15.68147 18.4721744,15.68147 C19.0966626,14.820107 19.5697176,14.0858645 20.2268542,13.4849943 C22.0294647,11.8352063 24.5600658,11.3913265 24.5600658,11.3913265 C24.7281706,11.3697924 27.490784,10.6001229 32.1900749,14.3574717 C30.8473211,14.4658367 29.2503263,14.7860692 28.0312198,15.00141 C24.5510354,15.6231196 22.3177434,18.9060241 21.6675533,20.2411367 C19.9767811,23.7282676 23.4340421,24.9286186 23.4340421,24.9286186 C23.4659959,24.8973595 26.7308396,24.6396452 28.3069949,21.1705752 C28.3069949,21.1705752 28.8835524,19.6333201 30.4152503,20.1313824 C31.4176268,20.4557828 40.2702156,23.5504378 42.2638542,24.0742021 C42.2638542,24.0742021 48.191282,25.6184037 50.4238794,22.8926065 C53.9915894,24.0630877 57.34118,24.6306148 66.1131897,23.4976446 C67.6365519,23.29967 68.8341243,23.3455168 68.8341243,23.3455168 C70.8840293,23.4990339 72.7540206,24.8772147 73.3215477,25.7823405 C75.627083,29.4736978 78.554328,36.8098709 88.7149382,35.9158595 L93.3093373,35.5004602 C96.1136296,35.3337448 98.3962416,35.2239905 100.712891,36.4424023 C101.722909,36.9724184 102.281406,37.1669198 103.990933,38.7986469 C106.33259,41.0263817 108.486692,43.4347249 111.351419,42.119757 C112.366994,41.6522592 113.509689,39.8364504 113.509689,39.8364504 C113.39924,39.0077359 113.031077,38.2102804 112.119005,37.5302204 C114.721849,38.1491514 120.593011,38.5492685 122.864508,34.5779682 C123.450791,33.6513083 123.515393,32.8274563 123.292411,32.3300886 L123.292411,32.3300886 Z M21.0514009,2.94580114 C21.1625445,2.94996903 21.2903597,2.95274762 21.4397089,2.95552621 C22.0489148,2.96594592 22.7366159,2.71517815 23.193694,2.50053204 C23.5194838,2.34909887 23.7306566,2.21572653 23.7028707,2.21572653 C23.280525,2.21155865 22.602549,2.20461217 22.3496972,2.20461217 C21.2507648,2.20461217 20.672818,2.82771105 20.6679554,2.88606145 C20.6637875,2.92148848 20.8152207,2.93607608 21.0514009,2.94580114 L21.0514009,2.94580114 Z" id="Fill-24"></path>
                    <path d="M85.1686564,48.0013893 L85.1686564,53.2300017 C85.1686564,54.5838698 85.0206965,55.6543217 84.3378579,56.5483332 C83.2278111,58.0057038 81.191799,58.8427542 75.513055,58.8427542 L75.45401,58.8427542 C69.8065251,58.8427542 67.7593987,58.0057038 66.6507411,56.5497225 C65.9685972,55.6543217 65.8213319,54.5852591 65.8213319,53.231391 L65.8213319,48.0013893 L69.7287246,48.0013893 L69.7287246,53.0820417 C69.7287246,54.4456349 69.9003025,55.245869 70.4004488,55.9502416 C71.2451402,57.1415622 72.7045948,57.5715491 75.3289734,57.5715491 L75.6610149,57.5715491 C78.4048729,57.5715491 79.7441534,57.1401729 80.5895395,55.9488523 C81.0889912,55.2444797 81.2612638,54.4088186 81.2612638,53.0862096 L81.2612638,48.0013893 L85.1686564,48.0013893 L85.1686564,48.0013893 Z M124.035578,49.3239983 C125.499895,49.3239983 126.149391,49.4594546 126.593965,49.7935801 C127.0177,50.111034 127.169133,50.5952034 127.169133,51.3482014 L127.169133,51.5447866 C127.169133,52.2248466 127.007975,52.7770914 126.508523,53.1230259 C126.018102,53.462014 125.33179,53.5377305 124.082814,53.5377305 L116.336104,53.5377305 L116.336104,49.3239983 L124.035578,49.3239983 L124.035578,49.3239983 Z M125.936134,54.7887908 C127.403924,54.7415548 128.649427,54.5171836 129.608736,54.0017551 C130.604166,53.4647925 131.077915,52.4540803 131.077915,51.4051625 C131.077915,50.0019743 130.451343,49.103795 129.310037,48.6022595 C128.295157,48.1556011 127.041318,48.0020839 124.54406,48.0020839 L112.429406,48.0020839 L112.429406,58.4968197 L116.336104,58.4968197 L116.336104,54.8596449 L121.46955,54.8596449 L127.326124,58.4968197 L132.086544,58.4968197 L125.936134,54.7887908 L125.936134,54.7887908 Z M57.6203225,57.0936315 L57.6203225,53.6759654 L61.5089597,53.6759654 L61.5089597,58.4954304 L50.2007917,58.4954304 C48.0814219,58.4954304 46.4100998,58.2481358 45.1493144,57.7396538 C43.0480055,56.8942677 42.0873079,55.3438143 42.0873079,53.2286124 C42.0873079,51.228722 43.1334471,49.8435947 44.4657812,49.0975432 C45.8807783,48.3049503 47.4763838,48 50.1320215,48 L61.1116213,48 L61.1116213,49.4024935 L51.3490441,49.4024935 C49.2574602,49.4024935 48.1175435,49.7171688 47.2492341,50.4243201 C46.4774806,51.0508922 46.0662492,51.9900557 46.0662492,53.2473679 C46.0655546,54.5470535 46.49832,55.5077511 47.3235614,56.1357125 C48.1939548,56.7984063 49.3679092,57.0922422 51.3816926,57.0922422 L57.6203225,57.0936315 L57.6203225,57.0936315 Z M16.758373,48.0013893 L16.758373,53.1188581 C16.758373,54.7742032 16.3784008,55.777969 15.5920597,56.5837602 C14.2187414,57.9890323 11.5846378,58.4968197 7.85854813,58.4968197 L0,58.4968197 L0,57.0873797 L7.23405995,57.0873797 C9.45415363,57.0873797 10.9545924,56.7192165 11.8576343,55.8265943 C12.5432514,55.1500076 12.8509803,54.2066762 12.8509803,52.805572 L12.8509803,48.0013893 L16.758373,48.0013893 L16.758373,48.0013893 Z M102.652936,56.2607491 L91.0759395,56.2607491 L89.1559336,58.4968197 L86.8920771,58.4968197 L95.9961283,48.0013893 L99.8472545,48.0013893 L108.960336,58.4968197 L104.578499,58.4968197 L102.652936,56.2607491 L102.652936,56.2607491 Z M92.2394742,54.9041023 L101.485234,54.9041023 L96.8554074,49.5303086 L92.2394742,54.9041023 L92.2394742,54.9041023 Z M34.3037817,56.2607491 L22.726785,56.2607491 L20.8067791,58.4968197 L18.5429226,58.4968197 L27.6476685,48.0013893 L31.4981001,48.0013893 L40.6111817,58.4968197 L36.2293448,58.4968197 L34.3037817,56.2607491 L34.3037817,56.2607491 Z M23.8910144,54.9041023 L33.1360791,54.9041023 L28.5062529,49.5303086 L23.8910144,54.9041023 L23.8910144,54.9041023 Z" id="Fill-25"></path>
                </g>
            </g>
        </g>
    </g>
</svg>