<?xml version="1.0" encoding="UTF-8"?>
<svg class="lz-logo" width="148px" height="38px" viewBox="0 0 148 38" version="1.1" xmlns="http://www.w3.org/2000/svg" xmlns:xlink="http://www.w3.org/1999/xlink"><title>8AEE9FA2-3EAE-4A67-AFED-382C5EAA02E0</title><desc>Created with sketchtool.</desc><defs></defs><g id="Symbols" stroke="none" stroke-width="1" fill="none" fill-rule="evenodd"><g id="legalzoom-logo"><g><path d="M65.8260177,7.02163472 C66.2844504,5.68530139 66.6156135,4.58330139 66.6667837,3.6401625 C66.7281879,2.46427361 66.0771454,2.18507917 64.2030035,2.18507917 L63.8099113,2.18507917 L64.1565567,0.852704167 C67.1698262,0.7735375 69.9133369,0.576940278 72.3902376,0.263968056 L65.1038617,23.0470792 C64.7761099,24.0284819 64.6637979,24.6591764 64.6454291,25.0093569 C64.6197128,25.4856764 64.9133511,25.8714819 65.3833298,25.8714819 C66.2414149,25.8714819 67.7429326,24.5375236 69.1279397,21.9896764 L70.0799681,22.4564958 C68.1785355,26.6620931 65.3904149,28.7412736 62.9704574,28.7412736 C61.0118191,28.7412736 59.9784433,27.6432319 60.0836702,25.6403153 C60.1450745,24.4594125 60.8058262,22.2994819 61.8300177,19.1206764 L65.8260177,7.02163472 Z" id="l" fill="#FFFFFF"></path><path d="M11.3474801,19.7479667 C10.9228986,20.3929111 10.6227,21.2998972 9.99238794,22.4565222 C8.09200496,26.6621194 5.30677092,28.7413 2.88681348,28.7413 C0.936834752,28.7413 -0.0970659574,27.6435222 0.00711134752,25.6406056 C0.0653666667,24.4594389 0.728480142,22.2995083 1.75345887,19.1207028 L5.74972128,7.02166111 C6.20920355,5.68506389 6.54194113,4.58332778 6.58943759,3.639925 C6.65346596,2.4643 6.00216099,2.18510556 4.12775674,2.18510556 L3.73807589,2.18510556 L4.08183475,0.852466667 C7.0914305,0.773563889 9.83861489,0.577230556 12.314466,0.263994444 L5.0241539,23.0473694 C4.69955106,24.0285083 4.58828865,24.6592028 4.56939504,25.0093833 C4.54341631,25.4857028 4.83941631,25.8715083 5.30493404,25.8715083 C6.16406879,25.8715083 7.46799078,24.5378139 8.85535957,21.9897028 C9.48619645,20.5937306 10.1991681,19.4323556 10.8617567,18.5032028 L11.3474801,19.7479667 Z" id="l" fill="#FFFFFF"></path><path d="M15.326056,20.0644222 C16.7858504,14.6417694 18.6460844,11.8891444 20.6768858,11.8891444 C21.6144816,11.8891444 22.2408574,12.6016444 22.1865383,13.6178806 C22.063205,15.9754639 19.7130489,18.3325194 15.326056,20.0644222 L15.326056,20.0644222 Z M23.1110135,22.7326028 C21.179666,25.2881028 18.8557511,26.5479083 17.1364319,26.5479083 C15.4184248,26.5479083 14.6204319,25.4026306 14.7387794,23.1234222 C14.7600348,22.6924917 14.8665738,22.1063944 15.0263823,21.3181583 C21.8653468,19.7886583 25.486361,17.0756167 25.6403965,14.1263944 C25.7563823,11.9717417 24.0724887,10.4773389 21.1431908,10.4773389 C18.6439851,10.4773389 16.0778645,11.6922833 13.8909284,13.9746583 C11.4539142,16.4860889 10.0429284,19.5107833 9.88154539,22.53495 C9.6781766,26.4645194 11.7869142,28.7841028 15.3759142,28.7841028 C18.5038574,28.7841028 21.6695879,27.0933667 24.0842972,23.5947278 L23.1110135,22.7326028 Z" id="e" fill="#FFFFFF"></path><path d="M46.338905,23.9093889 C46.4383589,21.9492222 47.1620894,19.3161389 48.6300184,16.7221111 C50.0958482,14.0927222 51.5309759,12.7569167 52.9010255,12.7569167 C54.0708553,12.7569167 54.7657206,13.6578333 54.6827986,15.2300833 C54.5917418,16.9561806 53.7142383,20.2566389 52.1667986,22.9688889 C50.876522,25.2451944 49.6426638,26.3809722 48.1610894,26.3809722 C47.0660468,26.3809722 46.2546709,25.4858611 46.338905,23.9093889 M52.5580539,25.0095417 C52.4554511,25.4858611 52.3961461,25.8716667 52.3709546,26.2690833 C52.2822596,28.0363472 53.0967844,28.8195694 54.8562525,28.8195694 C57.2389475,28.8195694 59.6255787,26.9361944 61.5839546,23.0852639 L61.9723234,22.1582222 L60.7434511,22.6113194 C60.256678,24.1627222 58.1644723,26.0740694 57.3084865,26.0740694 C56.7959972,26.0740694 56.5013092,25.7170278 56.538834,25.0858056 C56.5614014,24.5757083 56.8689475,23.2422778 57.5609262,21.2026806 L61.032366,10.9490139 L56.811217,10.9490139 L55.9764865,13.3865556 C55.6070113,11.540125 54.1815929,10.4360139 52.1130043,10.4360139 C49.729522,10.4360139 47.1941035,11.88925 44.9318553,14.7593056 C43.0075929,17.1530417 41.872139,20.2566389 41.7191532,23.0852639 C41.5415007,26.464625 43.3768057,28.7414583 45.993834,28.7414583 C48.5334511,28.7414583 50.5902312,27.5624028 52.5580539,25.0095417" id="a" fill="#FFFFFF"></path><path d="M37.1121021,14.2494722 C36.8869532,18.5656389 34.7451518,22.142125 32.8717972,22.142125 C31.5043716,22.142125 31.0790028,21.3182639 31.1737333,19.4720972 C31.3954709,15.2651806 33.4118397,11.88925 35.3253433,11.88925 C36.5720596,11.88925 37.1950241,12.7152222 37.1121021,14.2494722 M42.6967404,10.191125 C41.7880099,10.191125 40.776939,10.7500417 39.8112652,11.8763194 C39.7884355,11.8565278 39.7629816,11.8340972 39.7417262,11.8150972 C38.5438184,10.8321111 37.1168255,10.4360139 35.2812582,10.4360139 C30.4410809,10.4360139 26.9384142,13.8948056 26.7242865,18.0193889 C26.6190596,19.9827222 27.2097475,21.3955833 28.6000028,22.4160417 C26.1522298,22.8472361 24.2025135,24.7306111 24.0909887,26.733 C23.959783,29.0214444 25.994783,29.9640556 29.5530809,30.5475139 L32.6492723,31.0541806 C35.0080879,31.4151806 36.067705,32.0717361 35.9918681,33.4175694 C35.8876908,35.2655833 33.0953716,36.5757917 29.6202582,36.5757917 C26.1036837,36.5757917 24.3001305,35.3378889 24.3833149,33.8516667 C24.4709603,32.3269167 25.9701163,32.0717361 25.9829745,31.8535 C26.0031801,31.4550278 25.1834071,30.8008472 24.1277262,30.8008472 C22.7954638,30.8008472 21.6054284,31.8888611 21.5225064,33.3800972 C21.3781801,35.8820278 24.1888681,37.9569861 29.1891163,37.9569861 C35.3240312,37.9569861 39.4163362,35.7015278 39.6317759,31.8888611 C39.8364567,28.3295278 37.6211801,27.4222778 32.7794284,26.6556806 L30.2303645,26.2548333 C28.6401518,26.0036111 27.619634,25.8252222 27.6621447,25.0237917 C27.7592369,23.3517917 30.4410809,23.83075 33.9290525,23.5209444 C38.3672156,23.1232639 41.272634,19.8631806 41.4823007,15.8993056 C41.5416057,14.7210417 41.2466553,13.6578333 40.5943007,12.6785417 C40.5880028,12.6695694 40.5801305,12.6616528 40.5733078,12.6526806 C40.8309957,12.4075278 41.0789745,12.3038194 41.3576553,12.3038194 C41.9869177,12.3038194 42.1957972,13.1126389 43.1357546,13.1126389 C43.9418823,13.1126389 44.5281092,12.5877639 44.5756057,11.704 C44.620478,10.8234028 43.9529035,10.191125 42.6967404,10.191125" id="g" fill="#FFFFFF"></path><polygon id="z" fill="#FFFFFF" points="85.4024553 14.1077375 75.5712142 25.0517375 82.6190582 25.0517375 81.7916752 28.1761819 69.9453773 28.1761819 70.8590936 24.7036681 80.5874695 13.7657375 73.9907106 13.7657375 74.8162567 10.6368069 86.3161716 10.6368069"></polygon><path d="M90.3872475,25.3981444 C88.5886801,25.3981444 88.4417298,24.2526028 89.8571766,18.9030472 C90.8204887,15.2566306 91.4754674,13.4157417 93.5482546,13.4157417 C95.6228787,13.4157417 95.3071979,15.2566306 94.3475596,18.9030472 C92.9326376,24.2526028 92.1818787,25.3981444 90.3872475,25.3981444 M89.5617014,28.5244361 C95.8472404,28.5244361 97.6919922,24.6703389 99.1433894,19.1798667 C100.407162,14.3876444 100.798943,10.2905056 94.3727511,10.2905056 C87.9486589,10.2905056 86.1784319,14.3876444 84.9088858,19.1798667 C83.4619496,24.6703389 83.2759,28.5244361 89.5617014,28.5244361" id="o" fill="#FFFFFF"></path><path d="M105.912815,25.3981444 C104.116347,25.3981444 103.973857,24.2526028 105.38012,18.9030472 C106.347106,15.2566306 107.004184,13.4157417 109.076184,13.4157417 C111.148971,13.4157417 110.836177,15.2566306 109.876276,18.9030472 C108.460567,24.2526028 107.711645,25.3981444 105.912815,25.3981444 M105.087006,28.5244361 C111.374645,28.5244361 113.221496,24.6703389 114.666595,19.1798667 C115.935879,14.3876444 116.326347,10.2905056 109.900943,10.2905056 C103.475276,10.2905056 101.702425,14.3876444 100.437865,19.1798667 C98.9888291,24.6703389 98.802517,28.5244361 105.087006,28.5244361" id="o" fill="#FFFFFF"></path><path d="M122.652297,12.408425 L122.725772,12.408425 C124.106843,10.8477861 125.562439,10.2904528 127.393545,10.2904528 C129.119162,10.2904528 130.278496,11.1224944 130.708326,12.51055 C132.251829,10.9826333 133.819474,10.2904528 135.823772,10.2904528 C138.133779,10.2904528 139.806914,11.6787722 139.165056,14.1076056 L135.454297,28.17605 L130.580006,28.17605 L133.769354,16.0880917 C134.185801,14.5248139 134.229623,13.3098694 132.674311,13.3098694 C131.122148,13.3098694 130.525425,14.5248139 130.11029,16.0880917 L126.919368,28.17605 L122.154765,28.17605 L125.343326,16.0880917 C125.759772,14.5248139 125.803857,13.3098694 124.249333,13.3098694 C122.693758,13.3098694 122.097035,14.5248139 121.683737,16.0880917 L118.490716,28.17605 L113.621673,28.17605 L118.250872,10.6369389 L123.120701,10.6369389 L122.652297,12.408425 Z" id="m" fill="#FFFFFF"></path><path d="M144.057033,10.3964042 C146.106991,10.3964042 147.82736,12.0333069 147.82736,14.1766125 C147.82736,16.3613486 146.106991,17.9964042 144.057033,17.9964042 C141.998679,17.9964042 140.269913,16.3613486 140.269913,14.1766125 C140.269913,12.0333069 141.998679,10.3964042 144.057033,10.3964042 L144.057033,10.3964042 Z M144.057033,17.4374875 C145.794459,17.4374875 147.141941,16.0359736 147.141941,14.1766125 C147.141941,12.3568347 145.794459,10.9553208 144.057033,10.9553208 C142.298352,10.9553208 140.953494,12.3568347 140.953494,14.1766125 C140.953494,16.0359736 142.298352,17.4374875 144.057033,17.4374875 L144.057033,17.4374875 Z M142.591728,11.9710292 L144.287955,11.9710292 C145.333402,11.9710292 145.826998,12.3882375 145.826998,13.2416542 C145.826998,14.0449319 145.322643,14.3795431 144.669239,14.4500014 L145.926189,16.4117514 L145.193537,16.4117514 L143.996941,14.5014597 L143.272948,14.5014597 L143.272948,16.4117514 L142.591728,16.4117514 L142.591728,11.9710292 Z M143.272948,13.9433347 L143.988282,13.9433347 C144.589466,13.9433347 145.141579,13.9116681 145.141579,13.2113069 C145.141579,12.6228347 144.639324,12.5299458 144.178005,12.5299458 L143.272948,12.5299458 L143.272948,13.9433347 Z" id="circle-r" fill="#FFFFFF"></path></g></g></g></svg>