<?xml version="1.0" encoding="UTF-8"?>
<svg width="85px" height="103px" viewBox="0 0 85 103" version="1.1" xmlns="http://www.w3.org/2000/svg" xmlns:xlink="http://www.w3.org/1999/xlink">
    <!-- Generator: Sketch 42 (36781) - http://www.bohemiancoding.com/sketch -->
    <title>Group 2</title>
    <desc>Created with Sketch.</desc>
    <defs></defs>
    <g id="Welcome" stroke="none" stroke-width="1" fill="none" fill-rule="evenodd">
        <g id="Desktop" transform="translate(-681.000000, -708.000000)" fill="#FFFFFF">
            <g id="Fill-24-+-Fill-26-+-dominos_pizza-3-+-Group-2" transform="translate(259.000000, 708.000000)">
                <g id="Group-2" transform="translate(422.000000, 0.000000)">
                    <path d="M71.5416101,34.5358953 C72.5286739,29.0066098 68.8428436,24.662557 64.564127,21.5026567 C58.5747877,17.0927276 51.7949334,14.4598374 44.8174504,12.4192935 L44.8174504,85.3507845 C47.9114744,82.652018 51.0049584,79.6244102 53.9666899,76.5309262 C60.2859504,69.5534432 66.1440771,62.4447476 68.5793386,53.8878544 C69.5669424,50.0043953 69.0399324,45.5939262 65.7488196,42.961036 C68.5793386,40.7234033 71.1463525,37.9582206 71.5416101,34.5358953 L71.5416101,34.5358953 Z M59.4959753,59.7459811 C57.3236789,63.6953164 54.3619474,67.3152705 50.8726659,70.6722595 L50.8073296,49.8067665 C53.1767148,48.0956039 55.6125163,46.58153 58.5747877,46.318025 C59.7594803,46.318025 60.8124204,46.7132825 61.6023955,47.6344701 C64.2352857,51.7808942 61.1418017,56.1254871 59.4959753,59.7459811 L59.4959753,59.7459811 Z M65.4858546,32.8900689 C64.8929683,36.1817217 61.2730142,38.0899731 58.7060003,39.4728344 C56.1389863,40.7892795 53.5060961,41.8422196 50.8073296,42.8292835 L50.8073296,21.5026567 C54.9542937,22.7537656 58.7060003,24.8601857 62.2600781,27.3613234 C63.9064444,28.7436448 66.1440771,30.4548075 65.4858546,32.8900689 L65.4858546,32.8900689 Z" id="Fill-2"></path>
                    <path d="M39.5905477,84.5473102 L39.5905477,11.8793242 L33.732421,14.906932 L33.732421,53.8738152 C33.469456,54.9926315 34.258891,56.7043341 33.0083222,57.2308042 C32.6794809,57.2966804 32.4159759,57.1649279 32.2842234,56.9019629 C29.7830857,47.4892184 28.7301456,37.5500038 28.2695518,27.3472842 L28.071383,18.4615497 L22.4767613,22.6085138 L22.4767613,24.977899 C22.8056026,34.3906435 23.4643651,43.6057593 25.241404,52.4256176 L23.0037713,54.9272952 C22.14792,53.7420627 21.62145,52.4914938 21.0285637,51.2409249 C18.1985847,43.7375118 17.1451046,35.5094599 16.7503871,27.0184429 L11.8793242,30.638937 C12.339918,43.5398831 14.7757194,55.7172703 22.6085138,65.3929798 C24.1225877,63.6818172 25.6366616,61.9042383 27.1501954,60.2584119 C27.9401705,63.7471535 29.0589869,67.1041425 30.375432,70.3952553 C32.5477284,75.4639469 34.9829898,80.5979748 39.5905477,84.5473102" id="Fill-3"></path>
                    <path d="M84.2435557,21.4578393 L75.4890338,19.2860828 L73.9090837,13.3620798 L64.9574729,11.2556597 L63.1140178,4.80464667 L41.9855598,0 L21.2512793,4.80464667 L19.4083642,11.2556597 L10.4562134,13.3620798 C9.86386714,15.4020838 9.33739709,17.3772914 8.81038707,19.3519591 L0.0564050784,21.4578393 C-0.601817476,40.0856996 4.53221045,56.4753872 13.8132025,71.0880359 C20.5930568,81.5542604 30.7957763,92.6122914 41.9855598,98.0757006 C49.5548492,94.4552065 56.2688272,88.399451 62.3245827,81.6195967 C77.0025677,64.6375628 85.0329908,44.7591337 84.2435557,21.4578393 L84.2435557,21.4578393 Z M58.4411236,77.8025539 C53.635937,83.1995468 48.238404,88.5312035 42.1826486,91.6252275 C36.3903981,88.7288323 31.3222464,83.7260169 26.7146885,78.6578652 C14.7343901,64.6375628 6.77038313,48.971974 5.45393802,30.6076188 C5.32218551,29.0935449 5.25630926,27.6453473 5.32218551,26.0653972 L12.7602624,24.3542345 L14.471425,18.2326028 L23.6212045,16.0603063 L23.6865408,15.8632176 L25.3323672,9.54395705 L41.9196835,5.66049798 L59.0334699,9.54395705 L60.6787563,15.9949701 L69.9597483,18.2326028 L71.5396985,24.3542345 L79.0436516,26.0653972 C78.8460228,46.0755788 70.8814759,62.8605239 58.4411236,77.8025539 L58.4411236,77.8025539 Z" id="Fill-4"></path>
                    <path d="M61.3448301,97.5092728 C62.331894,97.4433965 62.9895766,96.9169265 62.9895766,95.7975702 C62.9895766,94.5470013 62.2001415,93.954655 60.6860676,93.954655 L58.3166824,93.954655 L58.3166824,100.273376 L59.3696225,100.273376 L59.3696225,97.575149 L60.3572263,97.575149 L62.0030527,100.273376 L63.121869,100.273376 L61.3448301,97.5092728 L61.3448301,97.5092728 Z M59.3696225,96.7192977 L59.3696225,94.8105063 L60.6201914,94.8105063 C61.2125377,94.8105063 61.9366365,94.9417188 61.9366365,95.7316939 C61.9366365,96.5875452 61.2789539,96.7192977 60.4889788,96.7192977 L59.3696225,96.7192977 L59.3696225,96.7192977 Z" id="Fill-5"></path>
                    <path d="M60.4743997,91.7947779 C57.5126682,91.7947779 55.0768667,94.2305793 55.0768667,97.1923108 C55.0768667,100.154042 57.5126682,102.589844 60.4743997,102.589844 C63.4366711,102.589844 65.8719326,100.154042 65.8719326,97.1923108 C65.8719326,94.2305793 63.4366711,91.7947779 60.4743997,91.7947779 L60.4743997,91.7947779 Z M60.4743997,102.063374 C57.7761732,102.063374 55.6038767,99.8910773 55.6038767,97.1923108 C55.6038767,94.4935443 57.7761732,92.3212479 60.4743997,92.3212479 C63.1731661,92.3212479 65.3454626,94.4935443 65.3454626,97.1923108 C65.3454626,99.8910773 63.1731661,102.063374 60.4743997,102.063374 L60.4743997,102.063374 Z" id="Fill-6"></path>
                </g>
            </g>
        </g>
    </g>
</svg>