<?xml version="1.0" encoding="UTF-8"?>
<svg xmlns="http://www.w3.org/2000/svg" height="168px" viewBox="0 0 283.4 283.2" class="header__logo__svg" style="height: 160px;">
  <path fill="#FFFFFF" d="M235.5 143.4c-.6-2.4-1.6-4.7-2-7.2-.4-2.4-.8-4.8-1.6-7.1-.7-2-1.6-4.7-3.7-5.6-1.2-.5-4 .4-4.9 1.4-1.6 1.7-1.5 4.5-2 6.6-1.1 5-2 10.1-1.9 15.2-.1 4.9 1.2 9.8 1.7 14.7.2 1.9.1 4.2 1.4 5.8 1.3 1.6 3.7 3.1 5.7 3.5 3.7.7 8.9-2.8 9.3-6.6.3-2.3.6-4.5.7-6.8 0-2.3-.3-4.7-.6-7-.4-2.3-1.5-4.6-2.1-6.9zm-132.9 23.1c1.1 1.6 3.2 3.1 4.9 3.9 1.9.9 4 .8 5.8-.1 1.5-.7 3.7-2.1 4.1-3.9 1-4.8.9-9.6.6-14.5-.2-2.4-.5-4.7-1-7-.5-2.4-1.5-4.6-2.3-6.8s-1.7-4.5-2.1-6.8c-.4-2.2-1.4-4.6-2.8-6.3-1.3-1.6-2.5-1.4-4.1-.5-2.2 1.2-2.4 2.9-3 5.2-1.2 4.9-2.5 10.2-2.4 15.3.5 5 1 10 1.3 15 0 1.9-.2 4.8 1 6.5zm2.4-46.2c.8-.3 1.6-.3 2.4-.8.8-.2 1.6-.1 2.3-.4 1.8-.9 2.8-3.8 2.6-5.6-.4-1.1-1.7-1.7-2.9-2.2-1.1-.6-2.4-.9-3.6-.2-.3.4-.7.7-1.1.9-1.8 1.6-4.5 1.9-6 4-.3.8-.2 1.6-.1 2.3.4.8.6 1.9 1.2 2.6.3 0 .5.1.8.2 1.5.2 2.9-.6 4.4-.8zm34.7 21.1c-1 1.6-2.1 3.2-3.3 4.8-1.1 1.5-2.5 2.8-3.3 4.6-.7 1.7-2.3 3-3.3 4.5-.5.8-1.1 1.4-1.7 2.2-.9 1-1.5 2.3-2.2 3.5-1.1 2-.1 3.9 2.2 5.4 1.4.9 3.4.3 5.2.1.8-.1 1.7 0 2.7-.1.7 0 1.4-.1 2-.1 1.1 0 2.1.1 3.1.2 3.4.2 7.4.1 10.4 0 2 0 4.2-.1 6.2-.6 1.9-.4 3.2-1.6 4.5-3 1.1-1.2 1.8-2.4 2.3-4.2.2-.6 0-1.3-.8-1.4-1.3-.2-2.6 0-4-.2-.2 0-.5-.1-.7 0-2.5.1-5.2.3-7.8.2-1.6-.1-3.1-.2-4.7 0-.5-.1-1.1.2-1.5-.1.5-1.2 1.7-1.9 2.4-3 2.6-3.9 4.3-8.3 7.5-11.7.9-1 1.8-1.9 2.5-3 .7-1 1.4-2.3 2.2-3.3.8-1.1 1.4-2.5 2.2-3.6s2.1-1.8 2.4-3.2c.2-1.2-.5-1.9-1.4-2.7-1-.9-1.8-2-2.8-2.1-.5-.1-1 .1-1.6.2-1.5.1-3.3-.1-5 .2-.7.1-1.4.3-2.1.4-1.5.2-3.2-.6-4.5-.4-1.9-.4-3.9-.8-6.1-.7-2.4.1-4.7-.2-7.1.2-1.4.2-2.4.7-3.5 1.4-.8.5-1.7.8-2.3 1.3-.9.8-1.9 2.1-2.4 3.2s-1 1.9-.7 3v.2c.2.3.6.3.9.3 1 .1 2.1-.3 3.2-.2.4 0 1 .1 1.6 0 3.2-.2 6.6.1 10 0 1.4-.1 3.6-.2 5 0-.7 1.2-1.9 2.6-2.6 3.6-1.1 1.1-2.2 2.6-3.1 4.1zm82.9-29.5c-1.4.1-2.8.1-4 .5-.2.3-.5.4-.7.6-.9 1-.5 2.7-.4 4 .3 1 .1 2.1.7 3 .6.9 1.6 1.1 2.7 1 .8-.2 1.5-.6 2.3-.7 1.7-.5 3.8-1 5.6-1.5.8-.2 1-.4 1.5-1.3.5-1.1 1.1-2.6.9-3.7-2-2.5-5.8-2-8.6-1.9zM188 139.2c-1.1 1.5-2.5 2.9-3.4 4.4-.8 1.3-1.3 2.9-2.5 4-1 .9-1.7 1.9-2.5 3-.5.7-.7 1.5-1.2 2.1-1.5 2-3 4-4.5 6.1-1.1 1.5-3.1 3.3-1.8 5.1.5.7 2 2.1 2.9 2.6.5.3.9.3 1.7.3 1.8 0 3.9-.1 5.4-.2 2.3-.1 4.5-.3 6.8-.2.7 0 1.4.1 2.2 0 2.3-.1 4.6.2 6.6.1 1.5.3 3-.3 4.4-.1 1.8-.5 3.9-.8 5.5-2.1.9-.7 1.8-1.8 2.4-2.8.5-.8 1.7-2.6 1.4-3.5-.3-.8-1.6-.7-2.2-.7-1.5 0-3.2 0-4.7.1-1.7.1-3.1.1-4.7.1-2.7-.3-5.5.4-8.1-.2-.1-.4.1-.6.2-.9 1.2-1.8 2.4-4.4 3.8-6.1.7-.9 1.4-1.6 2.2-2.4.5-.5.8-1.2 1.2-1.8.4-.7 1.1-1.5 1.6-2.2.9-1.1 1.7-2.4 2.5-3.5 1.4-2 2.8-4.6 4.3-6.6 1.3-1.7 3.4-2.8 3.1-5 .2-1-.7-1.5-1.3-2.2s-1-1.4-1.6-1.9c-2.9-.2-5.8.1-8.6.1-1.2 0-2.4-.3-3.6-.2-1.3-.5-2.8-.1-4.3-.1-.7 0-1.3-.1-1.9-.1-1.2.1-2.4-.1-3.6-.1-2.1 0-4.8.1-7.2.3-1.4.1-3.1 1.6-4.1 2.5-1.2 1.1-2.1 2.5-2.6 4-.2.6-.7 1.7-.3 2.2.5.8 2.7.3 3.5.2 1.2-.1 2.4-.1 3.7 0 .6.1 1.2-.1 1.8-.1 1.1 0 2.2.2 3.1.3.6.1 1.2 0 1.7 0 2.1.1 4.5-.1 6.4 0 0 .4-.5.9-.7 1.3-.8 1.5-1.9 2.8-3 4.2zM74.9 166.9c3.8-.5 7.2-.3 10.7-.5 1.7-.1 3.2 0 4.8.2.8.1 1.7.3 2.3.1.9-.3 2.1-2.8 1.6-3.8-5.1-3.2-10.8-5.1-16.6-6.5-1.2-.3-2.4-.3-3.9-.6-1.2-.2-3-.3-4.2-.3-.6 0-1.1-.1-1.3-.2-.6-.4-.1-1.1.2-1.5 2.2-3.3 3.8-6.7 6-9.7 1.8-2.6 4.2-5.7 5.6-8.4 1.6-3.3 3.5-5.6 5.4-8.3.9-1.3 2.1-2.7 2.6-3.6 1-1.8 2.2-3.6 3.5-5.2.7-.9 1.8-1.7 1.8-3-1.5-1.2-3.2-3.7-5.2-3.1-3.4.9-6.6.9-9.8.7-.8 0-1.5-.2-2.3-.3-.8-.1-1.5-.3-2.3-.4-1.8-.4-3.8-.7-5.6-1.1-3.4-.8-7.1-.8-10.5-.4-3.4.3-9.2 2.5-10.2 5.8-.5 1.6-1.7 3.2-.9 5 3.9.4 7.8.6 11.7.5 3.5.2 6.6-.5 10.1.1 1.3.2 3.6-.3 4.8.5 0 0-4.1 5.9-8 10.3-2.6 2.9-4.5 5.8-4.9 6.6-2 3.1-4.1 5.3-5 6.3-3.9 4.5-8.5 10.5-9.7 12.1-1.3 1.8-3.2 4.1-3.8 5.7-.5 1.2.3 2.9 1.5 3.5.5.9 1.4 1.5 2.2 2.2 3 1.5 6 1.6 9.2 1 .8-.1 1.6-.3 2.4-.4 4.7-1 9.7-1.5 14.2-2.7 1.1-.4 2.4-.5 3.6-.6z" class="header__logo__svg__path header__logo__svg__path--inner"></path>
  <path fill="#FFFFFF" d="M282.9 132.5c-.4-3.6-.1-7.3-.4-10.9-.7-6.7-2.1-12.8-3.9-18.6-1.7-5.6-3.3-11.8-6-16.7-2.7-4.9-5.3-9.8-7.9-14.6-1.3-2.4-2.6-5-4.2-7.1-.8-1.1-1.9-1.9-2.7-3-.8-1.1-1.4-2.4-2.2-3.4-3-4-6.3-8.5-10-12.5-6.4-6.9-13.2-13.1-21.1-18.2-3.5-2.2-6.7-4.5-10.3-6.7-1.2-.7-2.3-1.5-3.6-2.1s-2.3-1.5-3.6-2.1c-5-2.4-10.1-4.8-15.8-6.7-2.8-.9-5.5-1.9-8.3-3-1.3-.5-2.8-1.1-4.2-1.5-1.5-.4-3.2-.5-4.8-.9-2.9-.7-5.8-1.9-8.9-2.2-6.5-.8-13.1-2.1-20.2-2.1-3.5 0-7.6-.3-10.6-.1h-.3c-7.4.3-13 1.5-18.9 3-1 .2-2 .1-3 .3-1.4.3-2.1 1.1-3.4 1.3-1.2.2-2.3 0-3.4.3-3.7 1-6.8 2-10.3 3-9.3 2.5-17.5 5.9-24.5 10.6-1.8 1.2-3.5 2.5-5.2 3.6-1.8 1.1-3.7 2.2-5.4 3.4-.9.7-1.7 1.6-2.7 2.4s-2 1.5-3 2.2c-5.8 4.7-10.9 9.7-16.2 14.9-5.9 6.1-10.9 13.4-16 20.2-.8 1.1-1 2.3-1.6 3.6-1.2 2.4-2.9 4.3-4 6.7-2.3 4.9-5.1 9.4-7.1 14.3-1 2.4-1.9 5.2-2.5 8.2-1.2 5.4-3.3 11.3-4.6 16.8C.6 121.4 1 127.2.6 134.4c-.2 3.5-.6 6.8-.6 10.1s.2 6.7.3 10.1c.2 6.6 1.5 12.6 2.8 18.6 1.2 5.8 3 11.3 4.8 16.7 1.7 5.3 3.9 10.6 6.4 15.2 1.8 3.4 4.3 6.8 6 10.1.6 1.2 1.2 2.4 1.9 3.4 2.9 4.3 5.6 8.7 8.6 12.8 1.5 1.9 3.4 3.7 5.2 5.5 3.7 3.6 7.1 7.2 10.9 10.6 1.9 1.7 3.9 3.7 5.8 5.1 2.1 1.5 4.1 3.2 6.2 4.5 2.3 1.4 4.3 2.9 6.4 4.3 2.1 1.5 4.7 2.4 7 3.7 7.2 3.9 14.5 6.6 22.6 9.7 3.9 1.5 8.3 2.8 12.3 3.7 1.4.3 2.8 1 4.2 1.3 4.3 1 8.5 2 12.3 2.5 4.1.5 8.4.6 12.5.7 4.2.2 8.5.3 12.5.1 1.9-.1 3.9-.6 5.8-.7 2-.1 3.9-.2 5.8-.6 3.8-.8 7.7-1.3 11.2-2.2 3.5-.9 6.9-2.1 10.3-3 1.7-.4 3.4-1.1 5.1-1.3 1.7-.2 3.5-.8 5.1-1.3 1.5-.5 3-1.3 4.5-2.1s3.2-1.4 4.6-2.1c2.3-1.1 4.7-2.2 6.7-3.3.8-.4 1.8-.5 2.5-.9 2.3-1.2 4.5-2.9 6.7-4.3 1.2-.8 2.3-1.2 3.4-2.1l3.3-2.4c4.3-3.1 8.2-6.6 12.2-10.1 2-1.8 4.3-3.1 6.1-4.9 1.8-1.8 3.5-3.8 5.4-5.8 3.6-3.9 7.1-7.9 10.1-12.2 4.1-6 7.5-12.4 10.9-19 1.1-2.2 2.5-4.4 3.4-6.5 2.2-5.2 4.2-10.7 6.1-16.4s3.4-12 4.2-18.3c.9-10 1.9-20.2.8-31.1zm-6.1 20.3c-.2 2.4-.1 4.8-.3 7-.1 1.1-.6 2.1-.8 3.2-.8 4.7-1.5 9.2-2.7 13.5-1.2 4.1-2.4 8.3-4 12.2-1.2 3-3 6.1-4.3 9.4-2.4 6.7-6 12.1-9.6 17.8-1.3 2.1-2.8 4.2-4.1 6.2-2.8 4.2-6.2 8.5-10 12-1.1 1-1.9 2.2-2.9 3.3-2.8 3.1-6.5 6.1-10 8.7-1.2.9-2.2 2.1-3.3 2.9-.7.5-1.6.7-2.4 1.2-2.1 1.3-4.3 3.1-6.5 4.4-1.5.9-2.9 1.9-4.4 2.9s-3.2 1.6-4.7 2.6c-2.9 1.9-6.1 3.6-9.4 5.2-3.3 1.6-7.1 3.2-10.5 4.1-1.5.4-3 .5-4.6 1.1-2.8 1.1-5.8 1.9-8.8 2.7-.7.2-1.4.6-2.1.8-.9.2-1.8 0-2.7.2s-1.7.9-2.7 1.1c-1.6.3-3.3.4-5 .8-1.5.3-3.1.8-4.6 1.1-1.9.3-4.4.1-6.7.2-6.5 0-13.2 0-19.4-.8-3.9-.4-7.6-1.2-11.4-1.7-5.2-.6-10.4-2.7-15.5-4-1.8-.4-3.5-.9-5.2-1.4-9.8-2.9-18.6-7.8-26.9-12.6-2.2-1.2-4.2-2.2-6.4-3.5-2.5-1.5-4.7-3.1-7-5-1.5-1.3-3-2.8-4.6-4.1-3.2-2.6-7-4.9-9.6-7.7-2.8-3.1-5.3-6.4-7.9-9.6-1.3-1.6-2.3-3.4-3.6-5s-3-3-3.6-5c-6.2-7.8-10.8-18.3-14.6-28.9-.8-2.1-1.2-4.5-2-6.7-1.5-4.3-2.8-9.2-3.5-13.8-.8-5.2-1.1-10.4-2-15.6-1.8-10.6-.5-20.5 1.2-30.1.9-4.7 1-9.6 2.3-13.8.6-2 1.4-4 2.1-5.9.7-2.1 1-4.3 1.7-6.4.6-1.9 1.4-3.9 2.3-5.8.8-1.9 1.4-4 2.3-5.8 1.8-4 4.8-7.7 7-11.7.8-1.4 1.6-2.5 2.4-3.8 3.4-5 7-9.9 10.5-14.4 2.8-1.2 3.8-4.3 5.9-6.2.7-.7 1.7-1 2.4-1.7 2-2 3.8-4.2 5.9-6.4 2.7-2.8 5.7-5.2 8.8-7.6 2.3-2.1 5.2-3 7.9-4.4 1.3-.7 2.3-1.9 3.6-2.6 5.2-2.8 10.6-5.7 16.3-8.4 1.4-.7 3-1 4.4-1.7 2.9-1.3 5.8-2.7 8.7-3.6 3.2-1.1 6.4-1.5 9.9-2.4 6.5-1.7 13.1-2.1 20.7-2.1 4.7 0 10.3-.7 14.3-.6 13.7.2 25.7 2.8 36.5 6.5 8.3 2.9 15.9 6.2 23.1 10 1.2.6 2.4 1.2 3.5 2 5.2 3.6 11.2 7.2 16.3 11.4 4 3.3 8.4 6.5 12 10 3.6 3.6 6.7 7.9 10 12 2.5 3 4.6 6.3 7 9.6.8 1.1 1.8 2 2.4 3 2 3.1 3.9 7.4 5.6 11.5s4 7.5 5.5 11.5c.9 2.3 1.4 5.1 2.3 7.6.8 2.3 2 4.9 2.4 7.1 1.1 5.4 2.9 10.5 3.3 16.3.3 4.1-.1 8.1.2 12.6.2 5.2-.1 10.1-.4 15.1z" class="header__logo__svg__path header__logo__svg__path--outer"></path>
  <path fill="#FFFFFF" d="M270.1 120.7c-.1-1.4-.6-2.9-.7-4.3-.2-1.5-.6-2.9-.9-4.3-.7-2.8-1.3-5.6-2.1-8.2-3.9-13.3-10.1-24.2-16.8-34.6-1.5-2.3-2.9-4.3-4.5-5.9-3.3-3.6-6.1-7.5-9.6-10.8-3.6-3.3-6.6-7.2-10.5-10.1-3.9-2.8-8-5.6-12.2-8.3s-8.2-5.6-12.6-8c-2.2-1.2-4.7-2.1-7.1-3.1-2.4-1-4.8-2-7.3-3-10-3.9-21.4-6.2-34.1-6.8-6.3-.3-12.5-1.2-18.9-.9-2.1.1-4.5.5-6.7.7-4.3.5-8.2 1.8-12.2 2.2-2.1.2-4 .7-5.9 1.3-3.9 1.2-7.8 1.6-11.3 3.1-1.7.7-3.3 1.6-4.9 2.4-.8.4-1.8.5-2.7.9-.8.4-1.4 1.1-2.2 1.5-1.6.8-3.3 1.5-4.9 2.2-1.6.8-3.2 1.6-4.8 2.5-6.2 3.4-12.1 7.2-17.4 11.4-2.6 2.1-5.1 4.5-7.6 7-3.4 3.6-6.7 7.8-10.3 11.2-.6.5-1.2 1.1-1.8 1.8-5.2 6-9.5 12.1-13.2 19.4-.8 1.5-1.6 3.1-2.4 4.8-.7 1.6-1.6 3.4-2.2 5-2.5 6.9-6 13.6-7.4 21.4-2.1 11.5-3.7 26.1-3.1 39 .2 4.3 1 8.7 1.5 12.9s1.1 8.6 2.2 12.3c1.1 3.8 2.3 7.4 3.4 11 2.4 7.3 6.2 13.2 9.6 19.2 1.8 3.1 3.6 6.1 5.6 8.9 4.1 5.6 7.8 11.4 12.6 16.2s9.4 9.7 15 14c8 6.1 17.3 11.8 27.3 15.9 5.7 2.3 10.7 4.5 17.1 5.8 1.9-.2 3.7.6 5.5 1 4.2 1.1 8.5 1.7 12.5 2.4 2.3.4 4.6.3 7.1.4 4.8.3 9.5.6 14.4.6 9.8 0 17.9-1.3 26.3-3.6 4.1-1.1 8.3-1.9 11.9-3.3 7.4-2.9 15.4-5.2 20.9-9.2 3-2.2 6.5-3.4 9.4-5.6 2.9-2.2 6-4.1 8.5-6.7 1.2-1.3 2.8-2.2 4-3.4 1.3-1.3 2.4-2.7 3.7-3.9 2.6-2.4 5-5.1 7.4-7.7 4.6-5.1 9.1-10.8 12.9-17.2 1.8-3.1 4-6.1 5.9-9.2 2.6-4.3 4.7-8.7 6.7-13.5 2.5-6.2 4.9-12.3 5.8-19.9.3-2.8.8-5.6 1-8.5.2-3.1 1-6.1 1-9.2.1-3.3.4-6.6.3-9.9-.1-3.1-.6-6.3-.7-9.5-.1-3.2-.2-6.5-.5-9.8zm-3.1 25.9c-.1 3.7-.9 7.7-1.5 11.6-.5 3.9-.8 7.9-1.6 11.3-1.8 7-4.2 13.4-6.1 19.4-2.5 4.1-4.1 8.5-6.2 12.6-1 2-2.5 3.8-3.7 5.8-.6 1-1.1 2-1.8 3s-.9 2.1-1.5 3.1c-.5.8-1.6 1.5-2.2 2.4-1.9 2.6-4 5.1-5.9 7.7-7.2 9.5-17.6 15.9-27 23.2-.9.7-1.9 1-2.8 1.6-.7.5-1.1 1.3-1.8 1.8s-1.5.9-2.2 1.3c-4.4 2.6-9.9 4-14.5 6.8-2.4.5-4.6 1.5-6.8 2.2-2.5.7-4.9 1-7.4 1.6-3.7.9-7 2.6-10.8 3.3-.9.2-1.9 0-2.8.1-.8.1-1.5.5-2.2.6-2.9.4-6.1.6-9.2.7-9.4.4-18.7-.4-27.6-2.2-3-.6-5.9-1.2-8.8-1.8-5.4-1.1-10.7-3.1-16-4.8-1.2-.4-2.3-1.2-3.6-1.6-1.3-.5-2.8-.7-4-1.2-1.3-.5-2.5-1.4-3.9-1.9-4-1.5-7.7-3.8-11.3-5.9-4.7-2.8-9.2-6.3-13.4-9.6-2-1.6-3.8-3.8-5.8-5.8-1.9-1.9-3.9-4-5.5-5.9-3.5-4.4-7.5-8.2-10.5-12.3-1.7-2.3-3.3-5.4-4.9-8-.5-.9-1.3-1.7-1.8-2.5-.4-.8-.5-1.6-.9-2.4-1-2-2.3-3.6-3.1-5.6-1.6-4-3.7-8-5.2-12.3-.7-2.1-1.4-4.3-2.1-6.5-.6-2.2-1-4.7-1.6-7.1-.5-2.1-1.1-4.5-1.3-6.7-.6-5-1.7-10.2-1.8-15.3 0-3.8.1-7.9.3-11.9.2-3.4.9-6.6 1-9.9.3-9.8 3.9-18.2 6.8-26.3 2-5.5 4.2-10.8 6.7-15.7 3.5-7.5 8.2-13.9 13.2-20.3 3.2-4.2 6.8-7.8 10.7-11.6 7.4-7.2 16.5-13.2 26-18.6 1.8-1 3.3-2.2 5-3.4 3.5-2.5 8.5-4.5 12.9-5.9 4.2-1.4 8.7-2.7 13.4-3.7 9.3-2.1 20.5-2.9 31-3.1 4.1-.1 8.4.2 12.6.7 2.3.3 4.6.3 6.8.6 4.3.6 8.7 1.7 12.6 2.8 2.1.6 4.2.8 6.2 1.5 1.9.6 3.8 1.4 5.6 2.1 1.8.6 3.6 1.5 5.3 2.4s3.6 1.5 5.2 2.4c1.6.8 3.1 2.1 4.8 3 4.9 2.6 9.5 5.9 14.1 8.9 3.1 2 5.9 4.2 8.8 6.5 2.8 2.3 4.9 5.4 8 7.3 1 2.2 3.1 3.5 4.8 5.3 1.6 1.8 2.7 3.9 4.3 5.6 3.2 3.4 5.5 7.9 8 12 2.4 4 4.9 8.5 6.8 13.2 1.4 3.5 3.3 6.4 4.5 10.5 1.7 5.8 2.7 13.2 3.9 20 .2.9.1 1.9.3 2.8.2.8.6 1.6.7 2.4.8 6.6.9 13.3.8 19.7z" class="header__logo__svg__path header__logo__svg__path--outer"></path>
  <path fill="#FFFFFF" d="M181.7 204.8c1.6-1.1 3-2.1 4.4-3.2.5-.4.9-.7 1.4-1 .4-.2.7-.5 1.1-.7 2.6-2 4.8-4.1 7.1-6.8.4-.5 1-1 1.5-1.4s.9-.8 1.3-1.2c.4-.5.8-1 1.1-1.5s.7-1 1.1-1.4c1.5-1.7 3.5-4.7 4.3-5.9 2.6-3.9 2.5-4 2.3-4.3-.1-.2-.3-.3-3.3-.1-.1 0-.2.1-.3.2 0 .1-4.1 5.7-5.8 7.8-1.4 1.7-2.9 3.2-4.5 4.8-.6.6-1.1 1.2-1.7 1.8l-.1.1c-2.1 2.2-4.1 4.3-6.3 6.2-1 .8-2.1 1.6-3.2 2.3l-.4.3c-.6.4-1.2.9-1.8 1.4s-1.3 1-1.9 1.4c-4.8 3.1-10.6 5.5-18.2 7.8-2.2.6-4.8 1.2-7.3 1.6-3.1.5-7.2 1-11.4 1-2 0-4.2-.3-6-.5-.5-.1-1-.1-1.4-.2-.7-.1-1.4-.1-2.1-.2-.9-.1-1.8-.1-2.6-.3-8-1.4-14.3-3.5-20.2-6.9-.6-.4-1.3-.7-1.9-1.1-1.8-1-3.6-2-5.1-3.1-1.2-.9-2.4-1.8-3.5-2.8-1.1-.9-2.2-1.9-3.3-2.7-2-1.4-3.5-3-4.8-4.4-.3-.4-.7-.7-1.1-1.1-.9-1-1.9-1.9-2.6-3-1.5-2.3-4.3-6.6-5.7-8.6l-.7-1c-.1-.1-.2-.2-.3-.2h-3.1c-.1 0-.3.1-.4.2-.1.1-.1.3 0 .4.2.3 4 6.8 6 9.6 2 2.7 3.8 5.2 6.1 7.4 1.1 1.1 2.2 1.9 3.3 2.7.7.5 1.4 1.1 2.2 1.7 4 3.4 7.5 6.2 12 8.6 2.4 1.3 4.8 2.2 7.4 3.2.6.2 1.2.5 1.8.7.6.2 1.2.5 1.8.8.9.4 1.8.8 2.8 1.1 1.3.4 2.7.7 4 .9 1 .2 2.1.4 3.1.7 4.1 1.1 8 1.2 12.1 1.2h5.4c7.3 0 14.7-1.9 21.7-4 4.8-1.5 9.1-3.6 13.4-6.7.7-.5 1.5-1.1 2.3-1.6zM135.9 65.4c-8.6.8-14.8 2.2-19.5 4.5-.6-.1-1 .1-1.5.3-.4.2-.7.4-1.1.3-.1 0-.2 0-.2.1-1.9 1.1-3.8 2.1-5.7 3.1-2.3 1.2-4.5 2.4-6.6 3.7-.5.3-1.1.7-1.7 1-.8.5-1.7 1-2.5 1.5-7.5 5-13.9 11.7-19.3 20.5-.1.1-.1.3 0 .4.1.2.1.2 2.1.3.4-.1 1.5-.1 1.8-.1.1 0 .2-.1.3-.1 1.1-1.3 2.1-2.6 3.2-4.1 1.3-1.7 2.5-3.5 4.1-5.1 6.1-6.2 14-11.5 25-16.4.7-.3 1.4-.7 2-1 1.3-.6 2.5-1.3 3.7-1.6 5.7-1.8 12.7-2.9 19.1-2.9.6 0 1.2 0 1.9-.1.7 0 1.4-.1 2-.1 1 0 2.1.2 3 .4.3.1.6.1.9.2.6.1 1.3.1 2 .2.6 0 1.2.1 1.7.1 2.7.4 5.5 1.1 8.6 2.1.4.1.9.2 1.3.2s.8.1 1.1.2c1.6.5 3.2 1.2 4.7 1.8 1.9.8 3.8 1.6 5.7 2.1 10.1 5.6 18.7 13 25.6 22.1l.1.1s.1.1.1.2c.5.6 1.1 1.7 1.1 1.7.1.1.2.2.3.2h3.8c.2 0 .3-.1.4-.2.1-.1.1-.3 0-.4-.2-.3-4.9-7.3-6.6-9.5-.5-.6-1.1-1.1-1.6-1.6-.5-.4-.9-.8-1.3-1.2-2.3-2.6-4.3-4.3-7-6.4-6.6-5.2-12.3-8.5-18.1-10.4-.7-.2-1.4-.5-2-.7-1.6-.5-3.1-1-4.9-1.5l-.8-.2c-2.2-.6-4.2-1.2-6.9-1.6-1.2-.2-2.3-.4-3.5-.6-1.6-.3-3.3-.7-5-.8l-1.4-.1c-2.9-.5-5.9-.8-8.4-.6zm-53 143.9c.4-.4.8-.9 1.2-1.3.4-.4.8-.8 1.1-1.3.2-.3.4-.5.2-.9-.4-.8-.2-1-.9-1.6l-2.6-2.5c-.4-.4-1.4-.7-1.8-.3-.2.2-.5.4-.7.7-.5.6-.9 1.3-1.5 1.8l-.6.6c-.8.9-1.6 1.8-2.5 2.8-1.4 1.5-2.8 2.9-4.2 4.4-.5.5-.9 1-1.4 1.5-.3.4-.7.7-1 1.1-.7.8-1.4 1.7-2.2 2.5-.2.2-.3.3-.5.4-.6.6-1.1 1.3-1.7 1.9-.6.7-1.3 1.2-1.9 1.9-.3.4-.7.7-.9 1-.3.4-.4.8-.1 1.3.5.9 1.4 1.9 2.2 2.6.4.4 1 .8 1.5 1.1.9.6 1.6.2 2.2-.5.3-.3.4-.6.6-.9.6-.7 1.4-1.1 2-1.8.6-.6 1-1.4 1.5-2 .6-.6 1.4-1.2 1.9-1.8.3-.3.3-.8.7-1l.1-.1c.6-.5 1.3-1.1 1.9-1.7 1-1.1 1.8-2.2 2.8-3.2l2.1-2.2c1-.9 1.8-1.7 2.5-2.5zm18.1 14.6l.9.6c.2.1.8.3 1.2.5 1.1.6 1.4.5 2-.6.6-.9 1.1-1.7 1.6-2.6.3-.5.5-.9.6-1.5.2-.7-1-1.2-1.5-1.5-1.3-.8-2.6-1.3-3.9-2.1-.7-.4-1.3-.9-2-1.3-.4-.3-.9-.6-1.4-.9l-.9-.6c-.6-.4-1.3-.6-1.9-1-.9-.5-1.7-1.1-2.6-1.6-.5-.3-1.1-.5-1.6-.9-.6-.3-1.1-.8-1.7-1.1-1.5-.9-2.3.5-2.9 1.7-.2.4-.4.8-.6 1.1-.3.7-.6 1.3-.9 1.9-.2.4-.1.9.3 1.1.3.2.6.3.9.5 1 .6 1.9 1.3 2.8 1.9l1.2.6c.5.3.5.7.2 1.1l-1.8 3.3-1.2 2.1c-.3.5-.5.9-.7 1.4-.3.6-.8 1-1.1 1.5-.6 1.1-1.1 2.3-1.8 3.4-.2.4-.6.7-.8 1.1-.6.9-.9 2-1.4 2.9-.4.7-.9 1.2-1.3 1.9-.2.3-.3.8-.4 1.2 0 .4.3.9.6 1.1.9.8 2 1.4 3 2 .3.2.5.4.8.6.2.1.3.1.5 0 .4-.1.5.2.8-.2 1.1-1.1 1.8-2.4 2.6-3.7.4-.6.8-1.2 1.1-1.8.5-.8.8-1.6 1.3-2.4.3-.5.8-.9 1.1-1.4.1-.1.1-.2.1-.3.4-1 1-2 1.6-3 .3-.5.7-1 1.1-1.6.7-1.1 1.2-2.4 1.8-3.5.4-.6.8-1.2 1.3-1.7.8.3 1.4.8 2.1 1.2.3.3.6.4.9.6zm20 20.5l-.1-3.1c0-.8.1-1.6.1-2.4v-4c0-.4-.2-1-.1-1.4 0-.3.2-.5.1-.8 0-2.7-.2-5.3-.3-7.9-.1-1.7-1.4-1.9-2.7-2.3v.1c-.7-.1-1.7-.5-2.3-.1-.3.2-.5.4-.7.7-1.1 1.6-2 3.2-3 4.7-.9 1.3-1.7 2.7-2.5 4.1-.1.2-.2.5-.4.7-1.6 2.4-3.3 4.8-4.7 7.4-.3.5-.5.9-.9 1.3-.1.1-.2.2-.2.3-.2.6-.6 1.1-.9 1.6-.7 1-1.1 2.1-1.8 3.2-.2.4-1 1.5-1.1 1.9-.2.7.5 1 1 1.2.7.2 1.4.3 2.1.5l2.1.6.3.1c.8.2 1.1 0 1.5-.8.3-.8.7-1.6 1.1-2.3.2-.4.2-.3.6-.2h.2c1.3.3 2.6.7 3.9 1.1.5.1.9.3 1.3.4s.5.1.4.6c-.1.4 0 .8 0 1.2-.1.7 0 1.2 0 1.9v.1c0 .3.1.5.4.6s.6.3.9.3c.3.1.5.1.7.1l2.6.7c.5.2 1 .4 1.5.5.5.2 1.3 0 1.4-.6v-.4c-.1-1.4-.3-2.8-.4-4.2 0-1.8 0-3.6-.1-5.4zm-8.7-1.7c-.5-.1-1-.2-1.5-.5 1-1.6 2.1-3.2 3.2-4.8.1.2.3 3.1.3 3.6 0 .8.3 1.5.3 2.3l-2.3-.6zm34.1 6.7h-.7c-1.2 0-2.4-.1-3.7-.2-.7 0-1.5.1-2.2 0-.3 0-.5-.1-.5-.4 0-.5-.1-1.1-.1-1.6 0-.7.2-1.4.2-2.2 0-.9-.1-1.8-.1-2.7 0-.8.2-1.6.2-2.4 0-.7-.1-1.5-.1-2.3 0-.7.2-1.3.2-2s-.1-1.4-.1-2.1c0-.8.1-1.7.1-2.5 0-.3-.1-.7-.1-1 0-1 .3-2 .3-3 0-1.4-.9-1.3-2-1.3h-1.4c-.7 0-1.3-.2-2-.3-1.2 0-1.8.2-1.9 1.5 0 .7.1 1.5 0 2.3 0 .6-.2 1.2-.2 1.8 0 .7.1 1.4.1 2 0 .3-.1.7-.1 1v5.8c0 .4-.1.8-.1 1.2v1.1c0 .4-.2.7-.2 1.1 0 1 .1 2.1.1 3.1 0 .3-.1.7-.1 1s.1.7.1 1.1c0 .4-.1.8-.2 1.2l-.1 3c-.1.4-.1.9-.1 1.4 0 .4.3 1.5.6 1.6 1.3.6 3.1.5 4.6.6.8.1 1.6.1 2.4.1.5 0 1-.1 1.6-.1h3.5c.3 0 .5.1.7.1.5 0 1.1-.2 1.5-.3.6-.2.6-1.6.6-2.1 0-.8.1-3.3-.1-4 0-.2-.3-.5-.7-.5zm16.8 1.8c-.2-.9 0-1.8-.2-2.7-.1-.8-.5-1.6-.6-2.4-.1-.9-.1-1.8-.3-2.7-.1-.4-.4-.7-.4-1.2v-.1c-.1-.8-.1-1.7-.2-2.5-.2-1.4-.6-2.8-.9-4.2l-.5-3c-.2-1.1-.3-2.2-.5-3.4l-.3-1.8s-.1-1.1-.3-1.7c-.1-.3-.2-.6-.6-.7-.9-.2-.9-.4-1.9-.3l-3.6.7c-.5.1-1.3.7-1.3 1.2 0 .3.1.7.1 1 .1.8.4 1.5.6 2.3l.1.8c.2 1.2.5 2.4.7 3.6.3 2 .6 4 1 6 .1.7.3 1.4.4 2 .1.5.2.9.2 1.4.2 1.1.4 2.1.6 3.2 0 .2 0 .4.1.7.1.9.3 1.7.5 2.5.2.9.2 1.8.4 2.6.1.5.2.9.3 1.4s.4.8.9.9c1 .1 2.3 0 3.4-.2.6-.1 1.2-.3 1.8-.5 1.1-.3 1.1-1.1.9-2.1-.2-.2-.4-.5-.4-.8zm31.3-8.8c-.9-1-1.9-2-2.9-3.1-1.2-1.4-2.3-2.7-3.5-4.1l-2-2.4c-.5-.6-.9-1.3-1.4-2l-1.2-1.5s-.9-1.1-1.3-1.6c-.3-.3-.8-.7-1-1.1-.1-.2-.2-.5-.4-.7-1.6-2.1-3.4-4.1-5.1-6.1-1.1-1.3-2.3-.6-3.5-.2v.1c-.6.3-1.7.6-1.9 1.3-.1.3-.2.7-.2 1 .1 1.9.3 3.7.5 5.6.1 1.6.3 3.2.6 4.7.1.3.1.5.1.8.2 2.9.4 5.8.8 8.7.1.5.1 1 .1 1.5v.4c.2.6.2 1.2.2 1.8.1 1.2.4 2.4.5 3.6.1.4.1 1.8.3 2.2.3.6 1 .5 1.5.3.6-.3 1.3-.6 1.9-.9.7-.3 1.4-.5 2.1-.8l.3-.1c.7-.3.9-.7.7-1.5s-.4-1.7-.5-2.5c-.1-.4 0-.4.3-.6l.2-.1c1.2-.6 2.5-1.1 3.7-1.6.4-.2.9-.3 1.3-.5s.4-.2.7.2c.2.3.5.6.7 1 .3.6.7.9 1.2 1.5l.1.1c.2.3.4.3.7.2l.9-.3.6-.3 2.5-1c.5-.2 1-.3 1.5-.5s1-.8.9-1.5c.2.2.1.1 0 0zm-14.3-3.2c-.4.2-1 .4-1.4.5-.2-1.9-.3-3.8-.5-5.8.2.1 2.2 2.3 2.4 2.6.5.6 1.2 1 1.6 1.7l-2.1 1zm38.8-21.4c-.3-.3-.5-.6-.7-.9-.4-.5-1-1-1.5-1.6-1.6-1.9-3.1-3.9-4.7-5.7-.2-.3-.5-.5-.8-.8-.4-.4-.6-1.1-.9-1.4-.6-.7-1.3-1.4-1.8-2.1-.4-.5-.7-1.1-1.1-1.6-.3-.4-.6-.7-1-1.1-.7-.9-1.3-1.8-2-2.6-.8-.9-1.6 0-2.2.5-.5.4-1.2.9-1.8 1.1-.3.2-.5.5-.8.7-.7.6-1.7 1.3-.9 2.4l1 1c1.8 2.1 3.3 4.4 5.1 6.5.5.6 1 1.1 1.5 1.7.7.8 1.4 1.7 2 2.7l-.1.1c-2.2-.6-4.4-1.4-6.7-2.1-.5-.2-1.1-.2-1.6-.4l-.9-.3-2.5-.7c-2-.7-4.1-1.5-6.2-2.1-.5-.1-1-.2-1.4.2-.1.1-.2.3-.3.4-.2.2-.5.2-.7.4-.8.6-2 1.7-1.4 2.8.9 1.7 2.6 3.7 3.8 5.2.5.6.9 1.2 1.4 1.8 1.8 2.2 3.7 4.2 5.5 6.3 1.4 1.6 2.7 3.1 4 4.7.9 1.1 1.8 2.4 2.7 3.5.4.5.9.7 1.5.4.4-.2 3.5-2.6 4.1-3.1.2-.2.5-.4.4-.8 0-.4-.1-.8-.3-1-.3-.4-.7-.8-1-1.2-.1-.2-.2-.4-.4-.5-.4-.6-.9-1.1-1.3-1.7l-1.2-1.2c-.7-.7-1.3-1.5-1.9-2.2-.4-.4-.8-.8-1.1-1.2-.3-.3-.6-.8-.7-1.2 1 0 2 .5 3 .8.7.3 1.4.4 2.2.7 1 .3 1.8.8 2.8 1 1.5.4 3.9 1.1 5.3 1.6.7.3 1.4.2 2.1.1.9-.2 1.6-.7 2.3-1.3s1.9-1.5 2.5-2.2c.2-.3.4-.6.2-.9-.8-1.7-2.4-3.3-3.5-4.7zM68.6 53.8l.4.6.4-.3-.4.3c.5.7 1.3 1.7 2.1 2.9l1.9 2.6c.2.3.5.7.9 1.3.4.5.7.9.9 1.1l.5.7c.3.4.5.7.6.9l2.9 4.1.1.1c.8 1.1 1.4 2 1.8 2.6l.1.1s.1.1.1.2l.2.3c.1.1.2.3.3.4.1.2.3.5.5.8.3.5.7 1.1 1.2 1.6l.2.2s.1.2.2.2l.1.1c0 .1 0 .1.1.2l.1.1c0 .1.3.3.3.3.1.1.2.2.3.2.1 0 .2 0 .3-.1 0 0 .2-.1.5-.2 0 0 .1 0 .1-.1l.2-.2c.2-.1.3-.2.4-.2.2-.1.4-.3.6-.6l.4-.4c.1-.2.1-.4 0-.6l-1.2-1.5-.1-.1-.3-.3c-.1-.1-.2-.3-.2-.3s0-.1-.1-.1l-.8-1.1c-.3-.3-.6-.7-.9-1.2-.4-.5-1-1.4-2-2.6l-2-2.7c-.4-.5-.7-1-1-1.4-.2-.2-.4-.5-.6-.8l-.5-.7c.1.1.2.2.3.2l.7.7c.3.3 1.1 1 1.3 1.2l.6.6.5.5c.6.5.8.7 1 .8 1 .9 1.6 1.5 2 1.8.2.2 1.2.9 3.3 2.6 1.7 1.4 3.3 2.5 3.4 2.6s.3.1.4.1c0 0 .8-.3 1.7-.8.3-.2.4-.4.5-.4l.4-.3c.2-.1.3-.2.4-.2.2-.1.3-.3.3-.3.1-.2.2-.4 0-.6l-.5-.7c-.4-.5-1-1.3-1.7-2.3-.8-1-1.4-1.8-1.9-2.5-.1-.2-.3-.5-.6-.9l-1.4-1.8c-.1-.1-.2-.3-.4-.6l-2-2.8c-1.3-1.8-2.1-2.9-2.8-3.8l-.7-1c-.3-.4-.5-.6-.6-.8l-.6-.8c-.2-.3-.4-.5-.5-.6-.2-.2-.4-.6-.8-1-.3-.4-.6-.7-.8-1-.1-.1-.2-.3-.3-.3-.1-.2-.3-.4-.5-.8l-.5-.7c-.2-.1-.4-.1-.6-.1 0 0-.5.2-.8.3-.1 0-.1.1-.2.1-.1.1-.2.2-.4.3-.2.2-.3.3-.4.3-.2.2-.5.4-.5.4-.2.2-.2.4 0 .6 0 0 .9 1.1 1.3 1.7.2.2.4.5.7.9l.5.6c.5.7.9 1.2 1.2 1.6.2.3.5.7.9 1.2s.7.9.9 1.1l.3.4c.1.1.3.4.6.7.3.3.4.5.6.7l.5.7c.1.1.2.3.4.4l.2.2c.1.2.2.4.4.6l.7 1c.1.1.3.3.5.6l.5.7c.5.7 1.2 1.6 2.1 2.7l.1.1c.2.2.3.5.5.7l-2.3-1.6-1.1-1-.3-.2-.4-.4c-.1 0-.1-.1-.1-.1l-.2-.2-1.1-1c-1.3-1.2-4.1-3.8-8.8-8.3-.8-.6-1.8-1.4-1.8-1.4-.1-.1-.4-.1-.5 0 0 0-.6.3-1.3.8-.2.2-.5.4-.6.6l-.7.5c-.2.2-.2.4-.1.6.1.2.4.7.5.7zM86 44.9c.3.6.6 1 .7 1.2l.1.1c0 .2.1.3.2.5l2.3 4.6 1.2 2.4c.3.5.4.8.6 1 0 .1.1.2.1.3s.1.2.1.3l3.1 6c0 .1.1.2.2.4l.2.3c.1.1.1.2.2.4 0 .1.1.2.2.4l2 3.8c.1.2.2.2.4.2h.2l.4-.1c.2-.1.4-.2.5-.2l.9-.3c.2-.1.4-.2.7-.4.3-.2.5-.3.6-.4l.2-.1.1-.1s.1-.1.2-.1c1.1-.7 1.7-1.3 1.9-1.8.2-.4.4-.8.4-1.2.1-.7-.1-1.8-.7-3.7l-1.1-2.6c-1.6-3.3-3.2-6.6-3.4-7.1 0-.2-.1-.3-.1-.3l-.1-.1c-1.7-3.2-2.7-4.9-3.2-5.8-.1-.1-.2-.2-.4-.7-.1-.1-.2-.3-.3-.3-.1-.1-.1-.2-.2-.2-.6-.7-1-1.1-1.4-1.2-.3-.2-.5-.3-.8-.3-.9-.3-1.9-.1-3.1.5-.1.1-.3.1-.5.2l-.5.2c-.2.1-.5.2-.9.5s-1.5.9-1.5.9c-.2.1-.3.3-.2.5 0 0 .1.4.3.9-.2.3.1.7.4 1.4zm2.6-1.2zm.5.2l.7-.4c.7-.3 1.2-.4 1.5-.2.2.2.8.7 1.5 2.1l.1.1s.1.1.1.3v.1l.1.2c0 .1.1.2.2.3.4.8.7 1.3.8 1.6.2.3.3.6.5.9l1.5 2.9c.1.2.2.3.3.4l.1.2c.1.2.2.4.3.7l.9 1.8c.2.5.5 1.1.8 1.8s.5 1.2.6 1.4c0 .1.1.2.2.4l.2.4c.4 1 .5 1.7.4 2.3-.1.5-.5.9-1.1 1.3-.1 0-.2.1-.4.2-.1-.1-.2-.3-.3-.4v-.2c-.1-.2-.2-.5-.4-.9l-.8-1.7c-.1-.1-.1-.3-.2-.5l-.1-.1c0-.1-.1-.2-.2-.3l-.1-.2c0-.1-.1-.2-.1-.3l-1.1-2.2-.1-.1s-.1-.2-.2-.3l-.4-.8c0-.1-.1-.2-.1-.3s0-.1-.1-.1c0-.1-.1-.2-.1-.3 0 0-.1-.1-.1-.2l-1.5-3-.2-.5c0-.1-.1-.2-.1-.2l-1.8-3.5c0-.1-.1-.1-.1-.2-.1-.2-.1-.4-.2-.4l-1-2.1zm24.8-7.3c.3 1 .5 1.6.5 1.7l.1.3c.1.4.3.9.5 1.5.1.4.2.8.3 1.1l1.3 4.5c0 .1.1.3.1.5.1.3.2.8.4 1.4.3.9.5 1.7.7 2.4.2.6.4 1.2.6 1.6.1.6.2 1 .3 1.3l.5 1.6c.1.5.3 1 .4 1.5.2.8.3 1.3.3 1.3 0 .1.1.3.3.3 0 0 .3.1.7.1h.4l1.5-.3h.3c.2 0 .4 0 .6-.1.4-.1.7-.4.8-.4.1-.1.1-.1.1-.2s.1-.5.1-.7v-.7c0-.5 0-1.4-.1-2.6l-.4-11.8c0-.3 0-.6-.1-.9 0-.5-.1-1.1-.1-1.7v-3c0-1.3 0-2.1-.1-2.6l-.2-3.4c-.1-.3 0-.6 0-.6 0-.2-.1-.4-.3-.5 0 0-.4-.1-.9 0-.2 0-.4 0-.6.1l-.4.1c-.6.1-.9.5-.9.6-.1.1-.1.2-.1.3 0 0 .1 3.6.4 9.1.3 5.8.5 9.1.5 10.5v1.6-.1l-.3-1.2c-.2-.5-.3-1.1-.5-1.7-.1-.4-.3-.9-.4-1.4l-2.2-7.2-.3-.9c-.1-.3-.1-.5-.2-.7v-.1c0-.2-.1-.4-.2-.8-.1-.3-.1-.5-.2-.7v-.1c0-.2-.1-.4-.2-.7s-.1-.5-.2-.6c-.5-2.2-1.2-3.8-1.2-3.8 0-.1-.1-.2-.2-.3-.1 0-.5-.2-1-.1-.3.1-.6.2-1.1.4-.5.3-.8.6-.8.7-.1.1-.1.3-.1.4l1.6 5zm29.6 18.6l.7.2c.2.1.3.1.5.1h.8c.3 0 .7 0 1.1.1h.9c.8 0 1.6-.2 2.3-.5.8-.6 1.3-1.5 1.7-2.7.4-1.1.6-3 .8-5.7l.1-1.9v-1l.1-1.2v-1.5l.1-2.6c0-.7.1-1.2 0-1.5l.1-.9v-.5c0-.4-.1-.8 0-1.1 0-1.1-.1-2.1-.2-3v-.2c-.1-.4-.1-.7-.2-.9 0-.3-.1-.7-.3-.9l-.2-.4-.3-.4-.3-.4c-.2-.1-.3-.3-.5-.3-.3-.1-.4-.2-.5-.3-.1-.1-.1-.1-.2-.1s-.5-.2-1-.4h-.2c-.3 0-.7-.1-1-.2-.1 0-.3-.1-.5-.1l-.4-.1c-.4-.1-.7-.1-.8-.1h-.9c-.2 0-.4.2-.4.4 0 0-.1.6-.1.8l-.1 1.5c0 .2-.1.4-.1.6v.6l-.1.4c0 .4-.1.7-.1.8l-.1.9c0 .2 0 .4-.1.7L144 35c0 .6-.1 1.1-.1 1.5 0 .3 0 .8-.1 1.5l-.1 1.6c-.1 1.5-.2 2.6-.2 3.4v1.9c0 .1 0 .3-.1.6v.8c-.2 5-.3 8.4-.3 8.4 0 .3.2.4.4.5zm3-5v-1.1l.1-2.5c.1-1.7.2-4.6.5-8.7 0-.7.1-1.3.1-1.6v-.8l.1-2v-.6l.1-1.7v-1c1 .2 1.4.4 1.6.6.1 0 .1.1.2.1 0 0 .5.3.4 3.6 0 1.2-.1 2.4-.1 3.7-.1 1.2-.2 2.4-.3 3.7l-.2 2.6c0 .7 0 1.2-.1 1.5 0 .3 0 .5-.1.7-.1 1.4-.2 2.2-.3 3.2v.4c-.1.2-.1.4-.1.6v.1s-.1.1-.1.2c-.1.2-.3.5-.7.8-.3.3-.5.4-.7.4-.1 0-.3.1-.4.1h-.3v-.1l.1-1.7c.2-.2.2-.3.2-.5zm10.9 6c0 .1.1.1 0 0 .4.3.7.6 1 .7.3.1.7.3 1.3.4.4.1.7.1 1.1.1h.7c.6-.1 1.1-.3 1.6-.6.1-.1.2-.2.4-.3s.3-.2.4-.3l.8-.8c.3-.4.5-.7.7-1 .5-1 .9-2.1 1.3-3.6l.3-1.1c0-.1.1-.3.1-.5l.1-.3c0-.1 0-.2.1-.2 0 0 0-.1.1-.1l.2-.8c.1-.2.1-.4.1-.6l1.6-6.7c0-.3.1-.4.1-.6l.2-.7c0-.2 0-.3.1-.4v-.2c.2-.9.3-1.5.3-1.8l.2-.8.3-.9c0-.3.1-.7.2-1.2l.3-1.4c.1-.5.1-1.1.1-1.1 0-.2-.1-.3-.2-.4 0 0-.2-.1-.4-.1-.1 0-.3-.1-.5-.1l-.9-.3h-.1c-.3-.1-.5 0-.6 0-.2 0-.3.2-.3.4l-.1.5c0 .2-.1.5-.1.8l-.4 1.8c0 .2-.1.5-.2.9-.2.7-.4 1.6-.5 2.4l-1.9 8.4c-.1.2-.1.5-.2.8-.1.2-.1.5-.2.9l-.3 1.5-.3 1.2c-.2.6-.3 1.2-.5 1.7v.1c-.1.1-.1.2-.1.2-.2.6-.4.8-.7 1.2l-.1.1c-.6.6-1.1.7-1.8.5-.3-.1-.5-.2-.7-.6-.1-.1-.2-.6-.1-2.5V50c0-.2.1-.4.1-.5s.1-.4.1-.7c.1-.3.1-.7.2-1.2.1-.6.3-1.3.4-2.2.3-1.5.5-2.6.6-3.1l.1-.3v-.2l.1-.6c0-.2 0-.3.1-.5l.6-3c0-.2 0-.3.1-.4 0-.2.1-.3.1-.3l.3-1.3c.1-.5.1-.8.2-1.1l.4-1.7c.2-.7.3-1.3.4-1.7.1-.4.3-1.1.3-1.1.1-.2-.1-.4-.3-.5 0 0-.2-.1-.5-.2-.2-.2-.5-.2-.7-.3-.3-.1-1-.3-1-.3-.2-.1-.4 0-.5.2l-.2.3s0 .1-.1.1v.5s-.1.2-.1.3c0 .1-.1.1-.1.2s0 .2-.1.4l-.1.4v.1l-2.8 13.6c-.7 3.2-1 5.6-1 7.3 0 .9.1 1.7.2 2.3.1.8.4 1.3.7 1.7zm12.7-1.4l-.1.1c-.1.2-.2.4-.3.8l-.8 1.7-.3.6c-.1.1-.1.2-.1.3-.1.2-.3.5-.3.5-.1.2 0 .4.2.6l.6.3c.4.2.8.2 1 .3.3.1.5.2.5.2.2.1.5.1.6-.1 0 0 .5-.8 1-1.8l.6-1.2c.1-.1.1-.2.2-.4 0-.1.1-.2.2-.4.1-.4.3-.6.3-.6.1-.1.1-.2.2-.4 0-.1.1-.2.2-.4s.2-.4.2-.5c0 0 0-.1.1-.1 0 0 .1-.2.5-.8l.3-.7.2.1c.6.2 1.1.4 1.4.6.1 0 .2.1.4.1l.7.3c.1.1.2.1.3.2l.2.1-.2 1.1c0 .1 0 .2-.1.4l-.1.1c-.1.2-.2.6-.3 1.1v.1c0 .1-.1.2-.1.4l-.1.2c-.1.3-.1.4-.2.5-.1.7-.3 1.5-.5 2.3-.1.3-.2.6-.2.9 0 .1-.1.2-.1.4v.3c0 .2.1.3.2.4 0 0 .4.2.5.3.1 0 .2.1.3.1l.2.1c.1.1.2.1.3.1 0 0 .1.1.3.1l.3.1h.7c.1 0 .3-.2.3-.3l.1-.1c.1-.1.1-.3.1-.4v-.3c0-.1 0-.2.1-.3 0-.2.1-.3.1-.5l.2-1.1c.1-.4.1-.7.2-.9l.5-1.8c.2-.8.4-1.4.4-1.6l.1-.3c.1-.3.2-.8.4-1.4l.8-3.3.4-2c.1-.3.2-.6.3-1.1 0-.3.1-.5.1-.6v-.3l1.1-4.5c0-.1 0-.2.1-.2 0-.1.1-.2.1-.3 0-.2.1-.4.1-.4.1-.8.3-1.1.3-1.1l.1-.2c0-.2.1-.4.1-.7l.1-.6c0-.2.1-.4.2-.8v-.6c.1-.3.1-.7.1-1.2.1-.3.1-.7.1-.7 0-.2 0-.4-.2-.5 0 0-.5-.4-1.1-.8-.1 0-.3-.1-.5-.2l-.8-.3-.9-.3c-.2-.1-.4 0-.5.2l-.7 1.2-.3.6c-.2.2-.3.5-.4.7 0 .1-.1.2-.1.3-.1.1-.2.3-.3.4-.1.2-.2.3-.3.5l-1.4 2.8c-.2.3-.4.7-.5 1-.3.7-.8 1.7-1.2 2.4l-1.8 3.5c-.1.1-.2.4-.4.9l-.3.6-.1.2s0 .1-.1.2l-.2.4-.1.2c-.1.2-.2.3-.2.4 0 .1-.1.2-.1.3-.1.1-.3.4-.6 1.1l-1.2 2.5c-.8.3-1 .6-1.1.9zm6-4.9c.2-.4.4-.8.5-1.1l.1-.2c.2-.4.3-.7.4-.9l.1-.3c.1-.3.3-.6.5-1s.5-.9.6-1.4l1.2-2.6.5-.9c.8-1.5 1.3-2.6 1.7-3.3-.1.3-.1.8-.3 1.4 0 .1-.1.2-.1.4v.2c0 .1-.1.2-.1.3s-.1.3-.1.4v.2c0 .1 0 .3-.1.4-.1.4-.1.6-.1.8 0 0 0 .1-.1.6l-.2.7c0 .2-.1.3-.1.5l-.2.6c-.1.2-.1.3-.1.4 0 .1-.1.3-.1.6-.1.3-.1.5-.2.6-.2.5-.3 1-.3 1.4 0 .1 0 .1-.1.2 0 .1-.1.2-.1.2l-.2.5s0 .2-.1.3v.2c0 .1-.1.2-.1.3l-.4 1.6-1.3-.5c-.4-.2-.6-.3-.7-.3l-.1-.1-.4-.2zm7.4 10.9c-.1.2-.2.3-.3.5l-.1.2c-.1.2-.2.4-.2.6 0 .1-.1.3-.2.5 0 .1-.1.2-.1.2 0 .1 0 .1-.1.2s-.1.2-.1.2l-.1.2s-.1.2-.1.3l-.2.3-.1.3-.1.3c0 .1 0 .3.1.4 0 .1.2.3.6.5l.4.2c.1 0 .3.1.4.2.5.3 1 .5 1.3.7.2.1.4.2.6.4.7.4 1.4.8 1.8.9.1.1.3.2.5.3.1.1.1.1.2.1.1.1.2.1.3.1l.2.1.2.1c.1 0 .4.2.7.3l.2.1c.1 0 .1.1.2.1h.1c.1 0 .2-.1.3-.2l.5-.8s0-.1.1-.1c.1-.1.2-.3.3-.5l.4-1.2c.1-.2 0-.4-.2-.6 0 0-.7-.3-1.6-.8l-.8-.4c-.5-.3-.9-.5-1.2-.6l-1-.6.7-1.3c.2-.4.9-1.6 1.1-2.1l4.7-9.7.2-.5c.1-.3.2-.5.3-.6l.1-.1c.1-.2.3-.5.6-1 .6-1.2 1.3-2.4 1.9-3.4l.4-.7c.4-.6.7-1.2.9-1.5.3-.4.4-.7.4-.8s0-.3-.1-.4c0 0-.2-.3-.6-.5l-1-.6c-.3-.1-.5-.2-.6-.2-.2 0-.3 0-.4.1 0 0-.3.3-.5.7l-.4.8-.8 1.4c-.1.2-.7 1.1-1 1.6s-.4.8-.5 1c-.1.1-.1.2-.2.3-.1.1-.1.2-.3.4-.1.1-.2.3-.3.5 0 0-.1.1-.1.2 0 0-.1.2-.2.5-.1.2-.3.3-.4.5l-.6 1.1c-.1.2-.3.4-.4.6 0 0-.1.1-.1.2s-.2.4-.3.6l-.4.7c-.5.8-1 1.9-1.7 3.1l-.6 1.2c-.9 1.8-2 3.8-2.2 4.2l-.5 1.2zm11.1 6.6c-.1.1-.2.3-.4.4l-.2.2c-.1.2-.3.4-.3.5s-.2.2-.3.4c0 .1-.1.1-.1.2s-.1.1-.1.1l-.2.2-.1.2s-.1.2-.1.3l-.2.3s-.1.1-.1.2c0 0 0 .1-.1.1l-.1.3c-.1.1 0 .3 0 .4s.2.3.5.6l.4.3c.1.1.3.2.3.2.5.4.9.7 1.2.9.1.1.3.3.5.4.7.5 1.3 1 1.7 1.2.1.1.3.2.5.4.1.1.1.2.2.2 0 0 .1.1.2.1l.2.1.2.1.2.2.2.2c.1 0 .2.1.4.1h.1c.1.1.2.1.3.1h.1s.2-.1.3-.2l.5-.8s0-.1.1-.1c.1-.1.2-.3.3-.4s.2-.2.2-.3c.1-.1.2-.3.3-.4.1-.2.2-.3.2-.3.1-.1.1-.2.1-.4 0-.1-.1-.2-.2-.3 0 0-.7-.4-1.6-1l-.8-.5c-.5-.3-.9-.6-1.1-.8l-.9-.7.9-1.2c.3-.4 1.1-1.5 1.4-2l6.4-8.8.3-.4c.2-.3.3-.4.4-.6l.1-.1c.1-.2.3-.5.7-.9.7-1 1.5-2.1 2.2-3l.6-.8c.4-.5.8-1.1 1.1-1.4.3-.3.4-.7.5-.7.1-.1.1-.3 0-.4 0-.1-.2-.3-.5-.6l-.9-.7c-.2-.2-.5-.3-.5-.3-.2-.1-.3 0-.4.1 0 0-.3.2-.6.6-.2.3-.4.6-.5.7l-1 1.3c-.2.2-.8 1-1.2 1.5-.3.4-.5.7-.6.9-.1.1-.1.2-.2.3-.1.1-.2.2-.3.4-.1.1-.2.3-.4.5l-.1.1s-.1.2-.3.5c-.2.1-.3.3-.4.5l-.7 1c-.2.2-.3.4-.5.6l-.1.1c0 .1-.2.3-.4.6l-.5.7c-.6.8-1.3 1.7-2.2 3l-.7 1c-1.2 1.7-2.5 3.5-2.8 3.8l-1.1 1zm2.9 7.7l.2-.2-.2.2zm11.8-4.2c-.3.3-.5.6-.9.9l-6.6 6.6c-.2.2-.2.5 0 .6l.4.5.1.1.1.1.3.3.2.2.7.6c.1.1.2.1.3.1s.2 0 .3-.1.4-.3.6-.5l.3-.3.2-.2.1-.1 1.5-1.6.3-.3.2-.2.2-.2c.1-.1.2-.1.2-.2l5.8-6.1c1-.4 2.2-.8 3.2-1.4l1.4-.7.1-.1s.1-.1.3-.2.3-.1.3-.1h.2c.2-.1.5-.3.8-.5.1-.1.3-.2.4-.2.1 0 .1-.1.1-.1h.1c1-.5 1.8-1.1 3.5-2.1l.1-.1c.1-.1.3-.2.6-.4l.5-.3c.6-.3 1-.6 1.3-.8.1-.1.2-.3.1-.5 0 0-.1-.3-.4-.5l-.2-.2c-.3-.2-.6-.5-.9-.8-.4-.4-.8-.5-.8-.5-.2-.1-.3-.1-.5 0l-.2.2c-.1.1-.3.1-.4.3-.1 0-.2.1-.3.1l-.3.1c-.2.1-.3.2-.3.2l-3.1 2.1c-.7.5-1.2.8-1.3.9-.5.3-.9.5-1.1.6l-1 .5c-.1 0-.2.1-.3.2.3-.5.6-1.2 1.1-2.1l2.1-3.8c.1-.2.4-.7.7-1.3.1-.2.2-.5.3-.5l.2-.3.1-.1c.2-.4.4-.6.4-.6.1-.1.1-.3 0-.4 0-.1-.2-.6-.8-1.1-.8-.8-1.4-.9-1.5-1-.2-.1-.4 0-.5.2 0 .1-2.8 5.3-4.4 8.5l-.6 1.3s0 .1-.1.2c0 0 0 .1-.1.1 0 .1-.1.2-.2.3l-.2.4c0 .1-.1.2-.2.3-.1.1-.1.3-.2.4l-.1.1-.5 1.2-1.6 1.7c.3.2.2.4-.1.6zm-79.2-40.3s.6 0 2.1-.1l.1 3.3v1.9l.5 12.7v2.3c0 .3.1.6.1.7l.1 1.3c-1.1.1-1.7.3-1.7.3-.2.1-.4.2-.3.5l.1 2.3c0 .2.2.4.4.4h1.1c.5 0 .8-.1 1.1-.1l1-.1c.3 0 .7-.1 1.4-.1 1-.1 2.1-.1 2.1-.1.2 0 .4-.2.4-.5v-2.4c0-.2-.2-.4-.4-.5-.1 0-.5-.1-2.1 0v-.1L136 51v-2c0-.2-.1-.7-.1-1.2l-.2-3.9v-1.5c0-.2-.1-.6-.1-1.4v-.3c0-.1 0-.3-.1-.6l-.1-1.9v-3l-.1-3.3v-1.8c1.4-.2 2.1-.2 2.1-.2.1 0 .3 0 .3-.1.1-.1.1-.2.1-.3v-1.9c0-.1-.1-.2-.1-.3-.1-.1-.2-.1-.3-.1 0 0-3.3.2-3.7.2-.2 0-.4 0-.6.1-.4.1-1 .1-1.4.1-.7 0-1.7.2-1.8.2-.2 0-.4.3-.4.5l.1 2c.1.1.3.3.5.3zm-30.7 8.7c.1.2.3.3.5.2 0 0 .4-.1 1.1-.4.2-.1.5-.2.8-.4h.1l1 2.6c.1.4.3.9.6 1.7l4.3 11.1c.2.5.4 1 .4 1.2l.3.9c.2.3.2.5.3.6l.7 1.7c-.1 0-.3.1-.4.1-.7.2-1.7.6-1.8.7-.2.1-.3.4-.2.6l.7 1.7c.1.2.2.3.4.3h.1s1-.2 3.6-1.2 3.7-1.4 3.7-1.5c.2-.1.3-.4.2-.6l-.7-1.8c-.1-.2-.4-.3-.6-.3 0 0-.7.3-1.2.4-.2.1-.6.2-1 .4-.1-.2-.2-.5-.2-.7l-.5-1.2c-.1-.2-.2-.5-.2-.7l-.1-.2c0-.1-.1-.2-.1-.4l-.2-.4c-.1-.2-.3-.6-.4-1.1l-1.4-3.5c0-.1-.1-.2-.2-.5l-.3-.9c-.1-.2-.3-.5-.5-1.2l-.1-.3c0-.1-.1-.3-.2-.5l-.7-1.7c-.2-.6-.3-1-.5-1.3-.1-.3-.3-.8-.6-1.5l-1.1-2.9c-.2-.5-.4-1-.5-1.4 1-.5 1.9-.9 1.9-.9.2-.1.3-.4.3-.6l-.8-2.1c-.1-.2-.3-.3-.5-.3-.1 0-.8.1-3.3 1.3s-3.8 1.9-3.9 1.9c-.2.1-.3.4-.2.6l1.4 2.5zM58.1 66c.2.1.4.2.6 0 0 0 .6-.5 1-.8l.8-.8 2.3 2.4c.3.3.6.7 1.2 1.4l8.6 9c.4.4.7.7.9 1l.7.7c.3.2.4.4.5.5l.8.8c-.8 1-1.4 1.7-1.4 1.7-.2.2-.1.5.1.6L76 84c.1.1.2.1.3.1.1 0 .2 0 .3-.1 0 0 .3-.2.8-.8.3-.4.5-.6.7-.9l1.1-1.3c.1-.1.2-.2.2-.3l.3-.4c.7-.9 1.8-2.1 1.8-2.1.2-.2.2-.5 0-.6L80 76.2c-.2-.2-.4-.2-.6 0l-1.8 1.6-.7-1c-.2-.2-.4-.4-.5-.6l-.2-.2-.3-.3-.3-.3c-.2-.1-.5-.4-.8-.8l-2.7-2.8-.4-.4-.6-.7c-.2-.1-.5-.4-1-.9l-.2-.2-.4-.4-1.3-1.4c-.4-.5-.7-.8-.9-1-.2-.2-.6-.7-1.2-1.3L64 63.2c-.4-.4-.8-.8-1.1-1.2.1 0 .1-.1.2-.2.6-.5 1.5-1.5 1.5-1.6.2-.2.1-.5 0-.6l-1.4-1.2c-.2-.1-.4-.2-.6 0 0 0-.7.5-2.3 2-.1.1-.3.3-.6.5-2.1 2-3 3.1-3.1 3.1-.2.2-.1.5 0 .7l1.5 1.3z" class="header__logo__svg__path header__logo__svg__path--outer"></path>
</svg>