<?xml version="1.0" standalone="no"?>
<!DOCTYPE svg PUBLIC "-//W3C//DTD SVG 20010904//EN"
 "http://www.w3.org/TR/2001/REC-SVG-20010904/DTD/svg10.dtd">
<svg version="1.0" xmlns="http://www.w3.org/2000/svg"
 width="16.000000pt" height="16.000000pt" viewBox="0 0 16.000000 16.000000"
 preserveAspectRatio="xMidYMid meet">
<metadata>
Created by potrace 1.11, written by Peter Selinger 2001-2013
</metadata>
<g transform="translate(0.000000,16.000000) scale(0.002500,-0.002500)"
fill="#000000" stroke="none">
<path d="M5780 6220 l0 -181 -182 1 c-101 0 -187 0 -193 -1 -5 -1 -14 -1 -18
0 -13 2 -210 3 -222 0 -5 -1 -14 -1 -18 0 -13 2 -210 3 -222 0 -5 -1 -14 -1
-18 0 -11 2 -529 2 -542 0 -5 -1 -14 -1 -18 0 -12 2 -289 2 -302 0 -5 -1 -14
-1 -18 0 -11 2 -529 2 -542 0 -5 -1 -14 -1 -18 0 -13 2 -210 3 -222 0 -5 -1
-14 -1 -18 0 -13 2 -210 3 -222 0 -5 -1 -14 -1 -18 0 -11 2 -529 2 -542 0 -5
-1 -14 -1 -18 0 -12 2 -289 2 -302 0 -5 -1 -14 -1 -18 0 -11 2 -529 2 -542 0
-5 -1 -14 -1 -18 0 -13 2 -210 3 -222 0 -5 -1 -14 -1 -18 0 -13 2 -210 3 -222
0 -5 -1 -14 -1 -18 0 -21 4 -540 1 -544 -2 -2 -3 -18 -1 -35 2 -17 3 -48 5
-69 3 l-39 -4 0 -359 0 -359 203 0 c111 0 1326 -1 2700 -1 l2498 0 -3 -117 -3
-117 -60 -2 c-33 -1 -64 -3 -70 -4 -5 -1 -14 -1 -18 0 -13 2 -210 3 -222 0 -5
-1 -14 -1 -18 0 -13 2 -210 3 -222 0 -5 -1 -14 -1 -18 0 -13 2 -210 3 -222 0
-5 -1 -14 -1 -18 0 -13 2 -210 3 -222 0 -5 -1 -14 -1 -18 0 -13 2 -210 3 -222
0 -5 -1 -14 -1 -18 0 -13 2 -210 3 -222 0 -5 -1 -14 -1 -18 0 -13 2 -210 3
-222 0 -5 -1 -14 -1 -18 0 -10 2 -1489 2 -1502 0 -5 -1 -14 -1 -18 0 -13 2
-210 3 -222 0 -5 -1 -14 -1 -18 0 -13 2 -210 3 -222 0 -5 -1 -14 -1 -18 0 -13
2 -210 3 -222 0 -5 -1 -14 -1 -18 0 -13 2 -210 3 -222 0 -5 -1 -14 -1 -18 0
-12 2 -289 2 -302 0 -5 -1 -14 -1 -18 0 -13 2 -210 3 -222 0 -5 -1 -14 -1 -18
0 -13 2 -210 3 -222 0 -5 -1 -14 -1 -18 0 -12 2 -210 3 -222 1 -5 -1 -22 -1
-37 0 l-28 2 0 -361 0 -360 266 -3 c146 -2 268 0 271 5 2 4 8 5 13 2 7 -5 593
-8 625 -4 6 1 14 1 18 0 11 -2 608 -2 622 0 6 1 14 1 19 0 10 -2 447 -2 461 0
6 1 14 1 19 0 10 -2 447 -2 461 0 6 1 14 1 19 0 10 -2 447 -2 461 0 6 1 14 1
19 0 12 -3 207 -3 221 0 6 1 14 1 19 0 24 -5 137 -4 142 1 5 5 55 -3 79 -13 6
-2 10 -50 10 -114 l0 -110 -880 -2 c-484 -2 -897 -3 -917 -3 l-38 0 0 -360 0
-360 138 0 c75 -1 485 -1 910 -1 589 0 772 -3 773 -12 1 -18 1 -200 0 -214 -1
-9 -212 -12 -922 -12 -506 0 -923 -2 -926 -5 -7 -7 -8 -705 -1 -711 3 -3 421
-5 929 -6 l924 0 -2 -87 c-1 -48 -2 -102 -2 -121 -1 -31 -3 -33 -31 -29 -17 3
-33 1 -36 -4 -3 -5 -9 -6 -14 -3 -8 5 -201 9 -225 4 -5 -1 -14 -1 -18 0 -13 2
-210 3 -222 0 -5 -1 -14 -1 -18 0 -13 2 -210 3 -222 0 -5 -1 -14 -1 -19 0 -13
3 -129 3 -141 1 -5 -1 -14 -2 -18 -1 -13 2 -210 3 -222 0 -5 -1 -14 -1 -18 0
-13 2 -210 3 -222 0 -5 -1 -14 -1 -19 0 -21 4 -218 3 -222 -1 -2 -3 -23 -2
-47 1 -23 4 -58 4 -77 1 l-34 -5 -1 -355 0 -355 154 -5 c84 -3 155 -2 158 3 2
4 9 5 14 2 8 -6 121 -9 144 -5 6 1 14 2 19 1 11 -2 368 -2 381 0 6 1 14 1 19
0 11 -2 367 -2 381 0 6 1 14 1 19 0 13 -3 129 -3 141 -1 6 1 14 2 19 1 5 -1
95 -2 202 -2 l193 0 -1 -119 0 -119 -857 0 c-471 0 -884 0 -918 -1 l-63 0 0
-360 0 -360 53 0 c28 -1 143 -2 254 -3 112 -1 203 1 203 5 0 4 6 5 14 2 23 -9
1106 -10 1106 -1 0 5 5 5 11 1 6 -3 56 -6 110 -6 l100 1 -3 -122 -3 -122
-1818 0 -1818 0 3 -120 3 -120 1935 0 1935 0 3 363 2 362 -142 0 c-79 0 -494
2 -923 3 l-780 2 -2 117 -1 118 106 -1 c59 0 112 1 117 2 6 1 14 1 18 0 11 -2
449 -2 462 0 6 1 14 1 18 0 13 -2 210 -3 222 0 6 1 14 1 18 0 13 -2 210 -3
222 0 6 1 14 1 18 0 19 -3 460 -2 463 2 2 2 29 0 59 -3 31 -3 58 -3 60 1 3 3
16 4 29 2 l25 -5 0 361 0 361 -25 0 c-74 1 -295 0 -301 -1 -5 -1 -12 -1 -17 0
-12 3 -207 3 -221 0 -5 -1 -14 -1 -19 0 -13 3 -129 3 -141 1 -5 -1 -14 -2 -19
-1 -11 2 -368 2 -381 0 -5 -1 -14 -1 -19 0 -11 2 -367 2 -381 0 -5 -1 -14 -1
-19 0 -13 3 -128 3 -141 1 -5 -1 -21 -1 -35 0 -14 1 -47 3 -75 4 l-49 1 0 115
0 115 909 2 c499 2 910 5 913 8 6 6 6 704 0 711 -9 8 -428 9 -428 1 0 -5 -5
-5 -11 -1 -6 3 -325 6 -710 6 l-699 0 -1 36 c0 20 -1 73 -1 117 l-1 80 923 2
c507 1 925 4 928 7 7 8 7 704 0 712 -3 2 -413 5 -912 5 l-906 0 0 120 0 120
68 -1 c37 -1 72 -1 77 0 6 1 14 2 18 1 13 -2 210 -3 222 0 6 1 14 1 18 0 13
-2 210 -3 222 0 6 1 14 1 18 0 13 -2 210 -3 222 0 6 1 14 1 18 0 13 -2 210 -3
222 0 6 1 14 1 18 0 13 -2 210 -3 222 0 6 1 14 1 18 0 13 -2 210 -3 222 0 6 1
14 1 20 0 26 -6 218 -2 223 4 4 4 7 166 8 360 0 333 -1 354 -18 358 -10 3 -18
1 -18 -5 0 -5 -4 -6 -10 -3 -5 3 -840 6 -1855 6 l-1845 0 0 119 0 119 2613 0
c1436 0 2651 1 2700 1 l87 0 0 359 0 359 -30 4 c-16 3 -30 1 -30 -3 0 -4 -8
-5 -17 -3 -31 8 -223 9 -223 2 0 -4 -6 -5 -12 -3 -23 9 -148 10 -148 2 0 -5
-4 -5 -10 -2 -12 7 -189 9 -196 2 -3 -3 -18 -2 -32 2 -15 5 -36 5 -47 1 -11
-4 -25 -5 -30 -3 -23 8 -85 9 -85 1 0 -5 -4 -7 -10 -3 -11 7 -269 9 -277 2 -3
-3 -11 -3 -17 -1 -22 8 -96 10 -96 2 0 -4 -6 -5 -12 -3 -21 8 -148 11 -148 4
0 -4 -16 -3 -34 1 -19 4 -37 6 -39 4 -5 -5 -90 -6 -134 -1 -18 2 -33 -1 -33
-6 0 -4 -5 -5 -10 -2 -6 4 -54 6 -108 5 -94 -2 -117 -1 -174 4 -16 1 -28 -2
-28 -7 0 -4 -4 -6 -10 -2 -11 7 -269 9 -276 2 -3 -3 -18 -2 -32 2 -15 5 -36 5
-47 1 -11 -4 -25 -5 -30 -3 -23 8 -85 9 -85 1 0 -5 -4 -7 -10 -3 -8 5 -248 9
-275 4 -5 -1 -14 -1 -19 0 -24 5 -137 4 -142 -2 -3 -3 -18 -2 -32 2 -15 5 -36
5 -47 1 -11 -4 -25 -5 -30 -3 -23 8 -85 9 -85 1 0 -5 -4 -7 -10 -3 -11 7 -269
9 -276 2 -3 -3 -18 -2 -32 2 -15 5 -36 5 -47 1 -11 -4 -25 -5 -30 -3 -23 8
-85 9 -85 1 0 -5 -5 -6 -10 -3 -6 4 -54 6 -108 5 -94 -2 -117 -1 -174 4 -16 1
-28 -1 -28 -5 0 -4 -8 -5 -18 -3 -30 8 -222 9 -222 2 0 -4 -6 -5 -12 -3 -23 9
-148 10 -148 2 0 -5 -4 -5 -10 -2 -12 7 -189 9 -196 2 -3 -3 -18 -2 -32 2 -15
5 -36 5 -47 1 -11 -4 -25 -5 -30 -3 -23 8 -85 9 -85 1 0 -5 -4 -7 -10 -3 -11
7 -269 9 -277 2 -3 -3 -11 -3 -17 -1 -22 8 -96 10 -96 2 0 -4 -6 -5 -12 -3
-23 9 -148 10 -148 2 0 -5 -5 -5 -11 -2 -6 4 -37 7 -70 6 l-59 -1 0 120 0 119
2503 0 c1376 0 2591 1 2700 1 l197 0 0 300 0 300 -120 0 -120 0 0 -180z"/>
</g>
</svg>
